$MeshFormat
4.1 0 8
$EndMeshFormat
$PhysicalNames
3
1 101 "左边_固定"
1 102 "右边_拉力"
2 200 "domain"
$EndPhysicalNames
$Entities
6 6 1 0
1 0 0 0 0 
2 1 0 0 0 
3 1 0.5 0 0 
4 0.5 0.5 0 0 
5 0.5 1 0 0 
6 0 1 0 0 
1 0 0 0 1 0 0 0 2 1 -2 
2 1 0 0 1 0.5 0 1 102 2 2 -3 
3 0.5 0.5 0 1 0.5 0 0 2 3 -4 
4 0.5 0.5 0 0.5 1 0 0 2 4 -5 
5 0 1 0 0.5 1 0 0 2 5 -6 
6 0 0 0 0 1 0 1 101 2 6 -1 
1 0 0 0 1 1 0 1 200 6 1 2 3 4 5 6 
$EndEntities
$Nodes
13 861 1 861
0 1 0 1
1
0 0 0
0 2 0 1
2
1 0 0
0 3 0 1
3
1 0.5 0
0 4 0 1
4
0.5 0.5 0
0 5 0 1
5
0.5 1 0
0 6 0 1
6
0 1 0
1 1 0 24
7
8
9
10
11
12
13
14
15
16
17
18
19
20
21
22
23
24
25
26
27
28
29
30
0.03999999999992186 0 0
0.07999999999984518 0 0
0.1199999999997832 0 0
0.1599999999996745 0 0
0.1999999999995579 0 0
0.2399999999994413 0 0
0.2799999999993247 0 0
0.3199999999992081 0 0
0.3599999999990915 0 0
0.3999999999989749 0 0
0.4399999999988584 0 0
0.4799999999987418 0 0
0.5199999999987361 0 0
0.5599999999988415 0 0
0.5999999999989468 0 0
0.6399999999990521 0 0
0.6799999999991574 0 0
0.7199999999992628 0 0
0.7599999999993681 0 0
0.7999999999994734 0 0
0.8399999999995788 0 0
0.8799999999996841 0 0
0.9199999999997894 0 0
0.9599999999998947 0 0
1 2 0 12
31
32
33
34
35
36
37
38
39
40
41
42
1 0.0384615384614634 0
1 0.07692307692292313 0
1 0.1153846153843495 0
1 0.1538461538457758 0
1 0.1923076923072022 0
1 0.2307692307686286 0
1 0.2692307692301616 0
1 0.3076923076918013 0
1 0.3461538461534411 0
1 0.3846153846150808 0
1 0.4230769230767206 0
1 0.4615384615383603 0
1 3 0 17
43
44
45
46
47
48
49
50
51
52
53
54
55
56
57
58
59
0.9622238429739088 0.5 0
0.9258747199061299 0.5 0
0.8908987217666882 0.5 0
0.8572439898704198 0.5 0
0.8248606030163508 0.5 0
0.7937005264648449 0.5 0
0.7637175719326945 0.5 0
0.7348672475072473 0.5 0
0.7071067845005422 0.5 0
0.6803950025224559 0.5 0
0.6546922901646175 0.5 0
0.6299605280606229 0.5 0
0.6061630363157899 0.5 0
0.5832645211470707 0.5 0
0.5612310274371406 0.5 0
0.5400298704626563 0.5 0
0.5196296152795159 0.5 0
1 4 0 17
60
61
62
63
64
65
66
67
68
69
70
71
72
73
74
75
76
0.5 0.5196296152795159 0
0.5 0.5400298704626558 0
0.5 0.5612310274371402 0
0.5 0.5832645211470702 0
0.5 0.6061630363157895 0
0.5 0.6299605280606223 0
0.5 0.6546922901646168 0
0.5 0.6803950025224546 0
0.5 0.7071067845005408 0
0.5 0.734867247507246 0
0.5 0.7637175719326932 0
0.5 0.7937005264648437 0
0.5 0.8248606030163498 0
0.5 0.8572439898704189 0
0.5 0.8908987217666874 0
0.5 0.9258747199061292 0
0.5 0.9622238429739083 0
1 5 0 12
77
78
79
80
81
82
83
84
85
86
87
88
0.4615384615383014 1 0
0.4230769230767628 1 0
0.3846153846154912 1 0
0.3461538461542196 1 0
0.3076923076929479 1 0
0.2692307692316762 1 0
0.2307692307701911 1 0
0.1923076923084925 1 0
0.153846153846794 1 0
0.1153846153850955 1 0
0.07692307692339695 1 0
0.03846153846169853 1 0
1 6 0 24
89
90
91
92
93
94
95
96
97
98
99
100
101
102
103
104
105
106
107
108
109
110
111
112
0 0.9599999999998334 0
0 0.9199999999996669 0
0 0.879999999999508 0
0 0.8399999999997222 0
0 0.7999999999999997 0
0 0.7600000000002772 0
0 0.7200000000005549 0
0 0.6800000000008324 0
0 0.6400000000011098 0
0 0.6000000000013872 0
0 0.5600000000016645 0
0 0.5200000000019419 0
0 0.4800000000019974 0
0 0.4400000000018309 0
0 0.4000000000016645 0
0 0.360000000001498 0
0 0.3200000000013316 0
0 0.2800000000011651 0
0 0.2400000000009987 0
0 0.2000000000008322 0
0 0.1600000000006658 0
0 0.1200000000004994 0
0 0.08000000000033292 0
0 0.04000000000016646 0
2 1 0 749
113
114
115
116
117
118
119
120
121
122
123
124
125
126
127
128
129
130
131
132
133
134
135
136
137
138
139
140
141
142
143
144
145
146
147
148
149
150
151
152
153
154
155
156
157
158
159
160
161
162
163
164
165
166
167
168
169
170
171
172
173
174
175
176
177
178
179
180
181
182
183
184
185
186
187
188
189
190
191
192
193
194
195
196
197
198
199
200
201
202
203
204
205
206
207
208
209
210
211
212
213
214
215
216
217
218
219
220
221
222
223
224
225
226
227
228
229
230
231
232
233
234
235
236
237
238
239
240
241
242
243
244
245
246
247
248
249
250
251
252
253
254
255
256
257
258
259
260
261
262
263
264
265
266
267
268
269
270
271
272
273
274
275
276
277
278
279
280
281
282
283
284
285
286
287
288
289
290
291
292
293
294
295
296
297
298
299
300
301
302
303
304
305
306
307
308
309
310
311
312
313
314
315
316
317
318
319
320
321
322
323
324
325
326
327
328
329
330
331
332
333
334
335
336
337
338
339
340
341
342
343
344
345
346
347
348
349
350
351
352
353
354
355
356
357
358
359
360
361
362
363
364
365
366
367
368
369
370
371
372
373
374
375
376
377
378
379
380
381
382
383
384
385
386
387
388
389
390
391
392
393
394
395
396
397
398
399
400
401
402
403
404
405
406
407
408
409
410
411
412
413
414
415
416
417
418
419
420
421
422
423
424
425
426
427
428
429
430
431
432
433
434
435
436
437
438
439
440
441
442
443
444
445
446
447
448
449
450
451
452
453
454
455
456
457
458
459
460
461
462
463
464
465
466
467
468
469
470
471
472
473
474
475
476
477
478
479
480
481
482
483
484
485
486
487
488
489
490
491
492
493
494
495
496
497
498
499
500
501
502
503
504
505
506
507
508
509
510
511
512
513
514
515
516
517
518
519
520
521
522
523
524
525
526
527
528
529
530
531
532
533
534
535
536
537
538
539
540
541
542
543
544
545
546
547
548
549
550
551
552
553
554
555
556
557
558
559
560
561
562
563
564
565
566
567
568
569
570
571
572
573
574
575
576
577
578
579
580
581
582
583
584
585
586
587
588
589
590
591
592
593
594
595
596
597
598
599
600
601
602
603
604
605
606
607
608
609
610
611
612
613
614
615
616
617
618
619
620
621
622
623
624
625
626
627
628
629
630
631
632
633
634
635
636
637
638
639
640
641
642
643
644
645
646
647
648
649
650
651
652
653
654
655
656
657
658
659
660
661
662
663
664
665
666
667
668
669
670
671
672
673
674
675
676
677
678
679
680
681
682
683
684
685
686
687
688
689
690
691
692
693
694
695
696
697
698
699
700
701
702
703
704
705
706
707
708
709
710
711
712
713
714
715
716
717
718
719
720
721
722
723
724
725
726
727
728
729
730
731
732
733
734
735
736
737
738
739
740
741
742
743
744
745
746
747
748
749
750
751
752
753
754
755
756
757
758
759
760
761
762
763
764
765
766
767
768
769
770
771
772
773
774
775
776
777
778
779
780
781
782
783
784
785
786
787
788
789
790
791
792
793
794
795
796
797
798
799
800
801
802
803
804
805
806
807
808
809
810
811
812
813
814
815
816
817
818
819
820
821
822
823
824
825
826
827
828
829
830
831
832
833
834
835
836
837
838
839
840
841
842
843
844
845
846
847
848
849
850
851
852
853
854
855
856
857
858
859
860
861
0.483000254501424 0.5098148076397579 0
0.4818576076901455 0.4895406774030109 0
0.553587189405812 0.4830223188610836 0
0.6401414581213331 0.4782165104372027 0
0.4802264553468487 0.5942298710749822 0
0.4649937719769176 0.4994869398106914 0
0.4648031538686467 0.4774896577107753 0
0.4470413113084685 0.4892727447547989 0
0.4459849906117682 0.4658999427956135 0
0.4746838680785509 0.6934185976823874 0
0.4256551903123226 0.4819813436921607 0
0.4259600112626838 0.455723836464734 0
0.7493615966614706 0.4737831638967062 0
0.2599080789432914 0.03143449432593842 0
0.406075986589363 0.4674538526439703 0
0.405879765696941 0.4433621275731112 0
0.4271952279761635 0.4314628604613524 0
0.405870158692969 0.4183524658009707 0
0.4274095481935015 0.4059580215888586 0
0.6188547194241434 0.03094731255329591 0
0.2487735392275826 0.9676394364912904 0
0.3843686344879751 0.4554614487353649 0
0.4058889319730133 0.3925186167688303 0
0.4289464997692212 0.3799755109717962 0
0.3848400804644566 0.4804515908984803 0
0.02965959009840798 0.7040774486960157 0
0.9668926757636405 0.253334267623991 0
0.03265538512707442 0.2602674479023132 0
0.3622806634825699 0.4681786002664901 0
0.3620918362711428 0.4935902486969745 0
0.4061260029134682 0.3658865330391848 0
0.4303665745483941 0.3526541939729908 0
0.3396562870673903 0.4814598958200823 0
0.3397680052841484 0.5087906214832474 0
0.4757726404150303 0.7812071972241375 0
0.4056330310055467 0.3395520718430993 0
0.428437588288404 0.3224602861305565 0
0.3824043360944468 0.3513376731531653 0
0.7412418519840027 0.03655868058858532 0
0.3167382699092202 0.4940557646972062 0
0.3161989726738165 0.523720842589863 0
0.3811747796925972 0.3248911145314085 0
0.3570964063104237 0.3371570704613087 0
0.4549359551898845 0.3391082617624222 0
0.4559845038160393 0.3111515858208114 0
0.4805747704291548 0.3263347444024379 0
0.4816211510621952 0.2971128452519269 0
0.5066452686596259 0.3123042464096494 0
0.4564606346018785 0.2815682980918238 0
0.03489221665268002 0.3797665858392182 0
0.3573317091828306 0.3073379079196494 0
0.3316208508462537 0.3214315611751188 0
0.2916959388636028 0.5080424525952659 0
0.2914565900562762 0.5384272891490955 0
0.8415795180573611 0.4690182527385731 0
0.5078342023673642 0.2826535560770891 0
0.5334215979184715 0.2982773989462167 0
0.3316217864008795 0.2910492346622517 0
0.3048733664809347 0.3059323363576195 0
0.3169339453956545 0.5525012436096112 0
0.2920955652926038 0.5678707543658317 0
0.2654787176521587 0.5242920851533477 0
0.2658945700117848 0.4928642649211084 0
0.03110526133427297 0.8195850740484638 0
0.3042390836461815 0.2758085240035942 0
0.53458420697753 0.2679023916880328 0
0.5609042006035104 0.2844269929765876 0
0.3179111575112486 0.5818356750455995 0
0.2927297842561432 0.597487315588507 0
0.3309247499701239 0.2583990413004262 0
0.276265286118038 0.2916965899584082 0
0.2387872151060661 0.5095515574666716 0
0.2385551052793851 0.4789093225249878 0
0.2766659591501662 0.2593796303725657 0
0.3188506044090124 0.6115149829767654 0
0.2934349205946807 0.6276290995853399 0
0.2666414762653928 0.6130945320077525 0
0.2674230186800342 0.6439086683146954 0
0.2943895459370927 0.6579866683569465 0
0.2684490482738501 0.6751239009518792 0
0.2959456530809739 0.6894106213938872 0
0.269461100552313 0.7069361971652737 0
0.2968066360953988 0.7204755789057092 0
0.2705075963662497 0.7392683365262985 0
0.2981081318383184 0.7516691627602469 0
0.4214639583586908 0.03214006027956629 0
0.5621499144732512 0.2529196357048307 0
0.5890019933016734 0.2697839753118009 0
0.5343506843779922 0.2363982028196348 0
0.2395614051521557 0.6266564118652722 0
0.5865458142866866 0.3011351296665371 0
0.6158594139277908 0.2867051438571273 0
0.617500008637023 0.2549706545246929 0
0.6456332235667293 0.273195473334182 0
0.646650102821934 0.2397861090771343 0
0.6757982471508283 0.258860078696856 0
0.6455316061902976 0.3065826233564605 0
0.475111031600914 0.8674119049202297 0
0.8615515799783423 0.03956191573005872 0
0.0321650729111302 0.1430076420787452 0
0.2110348806277656 0.4946351470740898 0
0.2108660539423268 0.462105848405636 0
0.2475426722935767 0.2757432039533477 0
0.2481322102422098 0.2420476295743297 0
0.2415322232981247 0.7242432764565037 0
0.2426019484295902 0.7573240068155188 0
0.6759109518750884 0.2247990044626078 0
0.705250305847706 0.2429820471940125 0
0.03263467380868063 0.5785236210754701 0
0.506490760820232 0.3415582072758965 0
0.4808387063980254 0.4696572807058401 0
0.9645918943389787 0.3613930520625603 0
0.4505861558393295 0.510663080168779 0
0.2125372615091662 0.7416718069035211 0
0.2139761587767019 0.776228346722189 0
0.1346960267223859 0.9667550088249552 0
0.1824661282062684 0.4788623983820951 0
0.1830336922098066 0.5120925105381877 0
0.1822767142075581 0.4457469651508062 0
0.706245874710863 0.2102887138013144 0
0.7351699604252415 0.2275564032476242 0
0.7341104007693249 0.261731076314701 0
0.7642368262487091 0.2458556565829264 0
0.762352308523681 0.2802237530012063 0
0.7641560762651834 0.2098977331718928 0
0.3226710207499461 0.7009797010727168 0
0.2181724803385736 0.2591138875486197 0
0.2182416894525898 0.224582533582942 0
0.248966177493073 0.2075009143369214 0
0.2185357210017794 0.1895058133344039 0
0.3440519651110553 0.5957917852589556 0
0.6479857929827111 0.2078682670771695 0
0.3658674931500148 0.9685467618317027 0
0.3313718972896387 0.3520078758677269 0
0.7928793897558912 0.2644310186437995 0
0.7909133075495396 0.2989935380463853 0
0.7606982864460325 0.3143842532269986 0
0.218202333979039 0.2930998206330342 0
0.1401539845122758 0.03456311108563039 0
0.1876262237632085 0.2068079363013586 0
0.6915600403644528 0.4769868419485409 0
0.9658806539080755 0.1353586294738341 0
0.4789862166701059 0.6423264091126195 0
0.18286982092782 0.7597051953649054 0
0.1819665285641059 0.7248223877292777 0
0.1840119750653168 0.7949622215565151 0
0.2157324243308554 0.8115428688638555 0
0.7889767947871263 0.3331321783751811 0
0.5947868027007428 0.4793545056790774 0
0.8194282689257163 0.3179205452041318 0
0.3426194036218292 0.04027086311331401 0
0.5026040850548773 0.03919534326919013 0
0.7589277037264173 0.3477035224397105 0
0.2111174928775476 0.42894484199967 0
0.182284884786487 0.4122673015929651 0
0.1534036693660668 0.495839282918247 0
0.18829325388951 0.2763150689736067 0
0.2664970156742943 0.4616285237960142 0
0.1540445538596111 0.5303857410667815 0
0.2495316066764179 0.1723950834083325 0
0.1853748462890713 0.8306738216636377 0
0.1877195741950184 0.170857850441476 0
0.340070350915468 0.4557674691001654 0
0.279010022305054 0.326957957053379 0
0.8172433372012515 0.3521130130971231 0
0.1529478260177254 0.428726337405422 0
0.1527428615242572 0.3945495653721209 0
0.9090695721338968 0.4716635295404563 0
0.1560282041125565 0.1884772531141525 0
0.1517977391993409 0.742853287057634 0
0.150737637833712 0.7072982534861577 0
0.8477363464428556 0.3370911700892089 0
0.8503515159960513 0.3024372626912828 0
0.2172802557582665 0.8471520515145901 0
0.03279515699640471 0.8960823942044978 0
0.1240484412376897 0.5133295447544577 0
0.3659837252326213 0.5161515371451202 0
0.3448541386796114 0.6249929862574426 0
0.3694754527797712 0.6099437217349339 0
0.3703556636800073 0.6382165986411092 0
0.3942163359276827 0.6233675598002089 0
0.3933845321429416 0.5958292489293086 0
0.3955120963221734 0.651437080482852 0
0.4500411878829262 0.3935523330706166 0
0.8452966687297919 0.3711837174316436 0
0.8151167799783903 0.3859090897112035 0
0.1562363620756507 0.1518192149035019 0
0.1881387998608169 0.134850339809999 0
0.2474708317690998 0.8279477172424172 0
0.2799697014885451 0.1906279313829943 0
0.2806771586087176 0.1553869857260137 0
0.3085542653402162 0.1722070438000314 0
0.1534904114579622 0.8142075364542025 0
0.1546801006459552 0.8505073304500728 0
0.5633103120047898 0.2206671740557728 0
0.5344212309676093 0.2036564565021322 0
0.564726289376938 0.1873801211793534 0
0.5358623144293273 0.169781608854264 0
0.5048987974059661 0.1865316278778411 0
0.566038450124829 0.1530576325581162 0
0.5064462882137318 0.151942182132939 0
0.4755534011562342 0.1688645565749178 0
0.475480821681894 0.1321081394588979 0
0.4447076319910493 0.149193636444217 0
0.4449739297163631 0.1855993687000415 0
0.2491280524183842 0.8634107859108926 0
0.2789134375566173 0.8441554206887624 0
0.2807224637901478 0.8795795106542741 0
0.3103996043664733 0.8603765990801371 0
0.2399597720157884 0.5411121190435911 0
0.3853385217779648 0.2930284659362161 0
0.4142179055755983 0.1661190719942381 0
0.4148882090768471 0.2023449485531545 0
0.1249296832240444 0.5484283032802966 0
0.1551495866763321 0.5653794285469589 0
0.1258109384708393 0.583754263978694 0
0.3109515013995336 0.1362533977604173 0
0.3852257758189827 0.4062886421348114 0
0.2122891315903013 0.395272090815122 0
0.1561290236959408 0.6004980454151353 0
0.1255825987436057 0.61879178069852 0
0.03240253465853712 0.46163162860287 0
0.4819860601190953 0.5506304489498981 0
0.4131700085563644 0.1291756804162548 0
0.2183116709337516 0.8811673002209047 0
0.7314970656837942 0.3296738907360574 0
0.7296151390211822 0.3620077424086428 0
0.8793698098207787 0.3219980717371725 0
0.8818375412299867 0.2867716294149721 0
0.1224765829662869 0.4115828093204457 0
0.1227323709712507 0.3768494939133274 0
0.1885660941312888 0.3105808889037929 0
0.1579268946984722 0.2934148649627486 0
0.4171677133290848 0.6084851869319388 0
0.4159386635951872 0.5818799808720267 0
0.1238189989091718 0.1701306930273592 0
0.1244115645903325 0.2065376598942397 0
0.1268009662732497 0.1310165897890399 0
0.1830215243270544 0.6899346459521312 0
0.3123342396586792 0.8957425003720797 0
0.341907528573013 0.8763708010620239 0
0.3400485192264198 0.841734015173399 0
0.3707628975809594 0.8572782677382406 0
0.3691901282207314 0.8234448646102331 0
0.3989015886817335 0.838560653602052 0
0.3972439618224481 0.8055730391369538 0
0.3992920204684914 0.8722950236402817 0
0.3681624276456776 0.7906913039614288 0
0.395426513368169 0.7734174696854007 0
0.1199632260765722 0.7259146560797162 0
0.7031095385850229 0.3446476454468255 0
0.7016354285618677 0.3761313626397534 0
0.7273213157570561 0.3929610199874515 0
0.6998805550984596 0.4063414665591235 0
0.6750823596771737 0.3900458420776745 0
0.6736862735679227 0.4194491838880372 0
0.6494423930560864 0.4037153861654574 0
0.6491848103595322 0.3734198599934748 0
0.6249819082557309 0.3882913783900851 0
0.6238951117219953 0.4166660941545319 0
0.5999243099673743 0.4016203383671267 0
0.6012221647354324 0.373800770932442 0
0.5769197509371273 0.3871402615143338 0
0.5756735067736101 0.4142538731837198 0
0.553461835832932 0.4004098126524911 0
0.5070650752136808 0.1162236009490528 0
0.5528046347226856 0.4266128107462153 0
0.5308789775926862 0.4131577190299619 0
0.5303634942617671 0.4383042859239697 0
0.5087999471508182 0.4252705149969264 0
0.911553693710928 0.3065908124489757 0
0.2810326136210053 0.1188698386594326 0
0.1220718228380581 0.8332888370542935 0
0.1237774518266758 0.8698333132312357 0
0.4406102400990126 0.967991705805071 0
0.5091371002818582 0.3999600816717537 0
0.0960853363370546 0.5329678696680551 0
0.9403876286367927 0.02921380553329989 0
0.4261448863259486 0.8203488305419142 0
0.03852414858469707 0.06345509926395498 0
0.3671603342586978 0.7586190213677791 0
0.3953445495172515 0.7405359121724563 0
0.1845686289307628 0.5820941182018201 0
0.57812889367484 0.359517004671449 0
0.384670908390869 0.1838399148580255 0
0.2401328559798347 0.4125169410562649 0
0.8427863945679177 0.4047594061166804 0
0.8731663898091171 0.3904783676524368 0
0.8118914351574003 0.4223190080895713 0
0.09114029889403259 0.1885819142859307 0
0.2184094080361479 0.3266448630007943 0
0.3933528433173273 0.5690922891476837 0
0.4157248945542518 0.5562704229824542 0
0.1211921729253689 0.6892884207747696 0
0.3713350646459084 0.6665730003452984 0
0.3967138444030187 0.6795129847556112 0
0.4205462606173634 0.6644229289470365 0
0.421903661290967 0.6922521939850995 0
0.385223135993007 0.2191315291788474 0
0.437429964875347 0.5683140497467376 0
0.4767758277109982 0.09784667340966842 0
0.1566169164472539 0.887673795488761 0
0.8522349362630214 0.2671807054478181 0
0.8842761906165999 0.2510638631757457 0
0.8543802444804469 0.231150693743419 0
0.8867289786810506 0.2149014632904278 0
0.8557626648564958 0.1946169218067015 0
0.889031906505736 0.1781631330856359 0
0.8576064902991771 0.1576086631700205 0
0.8914652472830672 0.1408964221516208 0
0.8601538012051538 0.1202655676052555 0
0.8261320704798503 0.1372198244784954 0
0.8287709578807676 0.1001796692064334 0
0.7943686195255326 0.1167090930533018 0
0.8940592630828388 0.103101756379349 0
0.9176099618989313 0.201702075165754 0
0.4220987075721732 0.7550792179064436 0
0.1206953489044101 0.7620263153949178 0
0.08838235649570433 0.7453565271290513 0
0.4441175886706506 0.2197160677112428 0
0.72485256880413 0.4230924184843812 0
0.7533996948681503 0.4109067906497104 0
0.1240612847344539 0.4785831977807387 0
0.2426544167160139 0.3778845851529207 0
0.2686893091760446 0.3958662062961235 0
0.7042416245991016 0.3119646182825074 0
0.3131080065683435 0.1015505733773335 0
0.3439791018436181 0.118950696189618 0
0.7970322115888002 0.07289877129952653 0
0.7625523757126726 0.09588453790405836 0
0.7604816910594778 0.1336720111338076 0
0.7284739478202904 0.1118719530081219 0
0.594714555933463 0.1712924083081008 0
0.5968545063319446 0.1365100781835519 0
0.567970819971881 0.1194561506488014 0
0.6249952654928393 0.1551847985764619 0
0.6280542561662321 0.1193585004250835 0
0.6573935246586957 0.1413003960289562 0
0.6610761225749511 0.1039140159359698 0
0.2392479128145102 0.5973285304927594 0
0.9077623288360188 0.3406040622989359 0
0.5742710187971107 0.4400852402683643 0
0.05769230769254775 0.966691330623537 0
0.9630622154169298 0.4431251977533102 0
0.3718274649079111 0.6951008888871739 0
0.1862206598396206 0.6166988222260739 0
0.08942941718466664 0.781325766571246 0
0.09340943699005713 0.2247261702621862 0
0.8695419574128396 0.4220077944599428 0
0.9018838376922826 0.4072616566418489 0
0.1865820635570231 0.343498577875882 0
0.09062092719062703 0.8532095598691222 0
0.09556723712445822 0.6033050176659398 0
0.6026514715026042 0.345919653033211 0
0.2765150276233244 0.8086804836017026 0
0.09518855946542221 0.6386456700135699 0
0.7254879604446031 0.1538663554806826 0
0.3066847759543547 0.2092340961515055 0
0.1577340412341315 0.2584831959315573 0
0.1266559936293187 0.2761946696280045 0
0.1265731614749216 0.3110807817605957 0
0.09557067535679106 0.2946999555754107 0
0.5113051813096252 0.4857639664535948 0
0.2849551059588796 0.9140143811254466 0
0.3174856713481413 0.9284855819457551 0
0.09459306131915202 0.3294456792169395 0
0.09480989680308394 0.8958619762063924 0
0.06302486540943852 0.3130840140742166 0
0.8237628242111037 0.2110157337725509 0
0.4876648430252087 0.4132969309726418 0
0.4871115318020323 0.3869281561676822 0
0.09246898561136163 0.3957714037348868 0
0.09238917978865582 0.429757567610247 0
0.05881407351272308 0.2073735748949028 0
0.3404627695439327 0.7752105362687995 0
0.0626863521200209 0.6238988767550016 0
0.4364307871909511 0.5447480442166794 0
0.4151336419340575 0.5322715307423166 0
0.05873193034705679 0.7639620345215972 0
0.2797044919369518 0.08446493968923836 0
0.2487704906242673 0.1024040590030236 0
0.3451619264997104 0.0832975254856978 0
0.3770527530924762 0.1037372112619009 0
0.3766885106024319 0.06706400458371441 0
0.4093645666382915 0.08910765720073811 0
0.3568529828834455 0.2049823541519229 0
0.3569746791636651 0.1710191591945865 0
0.5089005195124728 0.4490688585632518 0
0.4487037750779118 0.6747261471923003 0
0.4423810251412628 0.6461446684759011 0
0.9409022609400803 0.327737118537044 0
0.4471853562002693 0.7058894492788553 0
0.3445218099464902 0.7427910670683373 0
0.5298165730249856 0.4591645702954643 0
0.06541227417857035 0.6579001909412867 0
0.6752562199710685 0.3265954754008147 0
0.6305129418812631 0.08514325294285066 0
0.6628738509644435 0.06776544460978051 0
0.2720540539809613 0.3616326278821509 0
0.2958353539858318 0.3813735131676522 0
0.2957497233004313 0.4117846482258266 0
0.3215976087999114 0.3980059397273158 0
0.4721003132365001 0.7216444820998696 0
0.5055805167858409 0.07966523916701097 0
0.9441392618239468 0.2903954694602839 0
0.6948720577900893 0.08719477262722031 0
0.4218825645623036 0.7234714120437848 0
0.6985219291644109 0.04233903913534916 0
0.7503533518711887 0.4413243429597103 0
0.7227834071533084 0.4530200443294056 0
0.7775160216766973 0.4572008902701175 0
0.6757961576210016 0.2934845749183659 0
0.6437367434690946 0.3385976634281377 0
0.5074743820124485 0.371027422459384 0
0.7614941196731317 0.1724064492025954 0
0.3212474801081117 0.424882277716979 0
0.3442619746465377 0.4092991193213605 0
0.2978786806762661 0.4449786975080641 0
0.3461923802389004 0.3816023211025198 0
0.7833870291330661 0.3990729629815105 0
0.5509067403630719 0.4492414721820808 0
0.5704929948896239 0.4650284437417687 0
0.5949161255693574 0.4536913733600735 0
0.6171708024214171 0.4657526969376521 0
0.4185164523804125 0.6357446290882077 0
0.4396395059465228 0.6197925082229789 0
0.9266357791707375 0.1229604134160125 0
0.9283722452154306 0.08605198113623819 0
0.8953757395273976 0.0659117719334547 0
0.06105807377949728 0.410678480337573 0
0.1544759874783855 0.360326102476765 0
0.699088432906685 0.4345009905602065 0
0.6770012320749835 0.4514815694430452 0
0.6480218424302774 0.4357473238106242 0
0.4742233006909512 0.203185732740717 0
0.4756788361025597 0.2360231329428039 0
0.5053030891295516 0.2196133530541962 0
0.459006430901552 0.5578466375308748 0
0.4594130559908461 0.5819446773199204 0
0.4143892697040455 0.2362339709981078 0
0.3856268017998981 0.2534823380506463 0
0.4127548160384362 0.2681665816138906 0
0.06323641720165829 0.3505816000323674 0
0.4242767850286502 0.7880011652745343 0
0.4511747426774927 0.8002661972457107 0
0.4547297862564044 0.8370200187267851 0
0.7866130985147446 0.3661931507830851 0
0.1839181649289165 0.5465931745657381 0
0.4473180458402014 0.7379371696221124 0
0.308650762090607 0.8256294141476825 0
0.308182770557689 0.7858902917805558 0
0.9670074799922619 0.4043937406152251 0
0.93467181002657 0.3858829952235989 0
0.806699689978247 0.4723173067046916 0
0.2149213343415727 0.5643749343349787 0
0.4039168871598747 0.9676901891870285 0
0.4227096189578333 0.9354228827936686 0
0.4640832488444985 0.938866304919972 0
0.438878010765684 0.9067980813369088 0
0.3798997294538569 0.9318409609672509 0
0.3579953464098037 0.2397156416971268 0
0.2995618990211574 0.03208477163803951 0
0.4382480922932868 0.5943735790593655 0
0.2446674987236019 0.7922643281847658 0
0.7928451122605507 0.1537718186849529 0
0.4609607120630413 0.03408012702141609 0
0.3435543094150851 0.5677099975548743 0
0.6930931328007732 0.1282015066150241 0
0.685342447465439 0.1619094073505036 0
0.4774736174252628 0.6660939633419127 0
0.4798831581863872 0.3591557372442823 0
0.5308829236361544 0.3574827012219702 0
0.346487856648203 0.6817125004585953 0
0.3942503644090452 0.5446685851998538 0
0.3943394693193478 0.5181174049327618 0
0.4169586314352864 0.5066963056727781 0
0.3697436870606615 0.5564720856453165 0
0.5541186315014196 0.3729572655396621 0
0.3753941102668675 0.1457910360761544 0
0.6197787458376195 0.442675178334669 0
0.8764759509650017 0.4716978975166856 0
0.1552604497506224 0.6351246548805707 0
0.1833413753560725 0.6536959728408263 0
0.153079928719781 0.6711520524511113 0
0.2120886451304596 0.672901519387473 0
0.2680357474232251 0.4283078258231582 0
0.2929513324168009 0.4783097213057327 0
0.2198594957247863 0.03332662469508003 0
0.03332507756728496 0.5387859366252472 0
0.03319969709285163 0.4990261454078755 0
0.06485406100244928 0.479929250156416 0
0.5577851428138657 0.3146548096209146 0
0.4149467751199668 0.2975984520528366 0
0.2840720296120697 0.9688546163100097 0
0.2114878674361668 0.9671955140538162 0
0.230288738922948 0.9361111824200924 0
0.1957232572323342 0.9358396048893076 0
0.5420058211981423 0.03400147605687294 0
0.5796345564719401 0.03307459096459493 0
0.5596665849913133 0.06615523474893552 0
0.1798922027699372 0.03426696655885673 0
0.1593539004431937 0.07415561944598235 0
0.1189293272626692 0.06854952624446342 0
0.2012545699728128 0.06610090033974161 0
0.3224560230511267 0.964088710843261 0
0.9332657954174411 0.422292869504272 0
0.9695832019830968 0.2116136952232628 0
0.1004671739968088 0.03490979524200799 0
0.08062853698501558 0.06553442040779671 0
0.06633323519975284 0.556685985343605 0
0.2785050765576116 0.2255183168216471 0
0.3689271316378069 0.5824731880451787 0
0.0318957210195357 0.8573402110685053 0
0.3712478138973558 0.7253653208209899 0
0.4426877729944388 0.2524369831197505 0
0.4588150095287199 0.5337189951605733 0
0.7798837989361754 0.03442776988641101 0
0.8191943479120476 0.03493780678156944 0
0.3198323060062149 0.6410586070540728 0
0.9668159294780837 0.1732927346227199 0
0.824661062434232 0.1737723560782667 0
0.8418758425137438 0.4366140671232535 0
0.667543646343536 0.4782920863550376 0
0.4423696950014691 0.1089024620216568 0
0.4420969304215824 0.06916882306349156 0
0.03369601083381003 0.1030242765629836 0
0.06606009779388056 0.1233373234435736 0
0.4801491683020848 0.6176403844733435 0
0.4880949164024969 0.4360617945513906 0
0.4666224901534641 0.4279819641961863 0
0.4689917827511617 0.453567874695884 0
0.1736828662613448 0.9672307352439617 0
0.1562813880925734 0.9277534159807576 0
0.1156784218486411 0.9333329904112471 0
0.3468708888716586 0.5374416342860271 0
0.4737699473303021 0.7513057048176948 0
0.732981399651862 0.2960163793028959 0
0.9426992728310521 0.472445316131932 0
0.7310373389461207 0.07351400053212592 0
0.9656977767959247 0.09776768136621805 0
0.6746675167706265 0.3582396414977801 0
0.2392982050649502 0.4451178105085021 0
0.2997922441785604 0.3526840941139197 0
0.3732491739604858 0.8925106174434553 0
0.09621625424924399 0.9666456389144702 0
0.07704189363293219 0.9342860283000756 0
0.4801053337263904 0.5715245305766475 0
0.7562907475757641 0.3795237469957734 0
0.4818352038973515 0.5285359035278951 0
0.3451853896727466 0.9112072650880935 0
0.3395238569396151 0.8083448246073273 0
0.4282773932314059 0.8526444375553759 0
0.8760430767593252 0.3562258649073589 0
0.9140815175457411 0.2369415369943223 0
0.8623254298378729 0.08240023461216112 0
0.7046963559399707 0.2775064624515564 0
0.5924158623494061 0.2052252903014875 0
0.6144732033834441 0.3189905506061133 0
0.9123323256938739 0.271149897820597 0
0.09454253339444096 0.1472547036574042 0
0.9291720799852946 0.1635319837566803 0
0.2481459612374083 0.3083566277041454 0
0.1870030526446635 0.8662731988134863 0
0.8216840013671732 0.2836126216880761 0
0.5301291630749279 0.4808844371298678 0
0.2486526988607772 0.9032883436765523 0
0.4519796132514725 0.3677784234431352 0
0.1524476113555894 0.7785975195118763 0
0.1582090535855548 0.1149347254897207 0
0.266442909260002 0.5540427282730817 0
0.1878472211138217 0.2414772365678238 0
0.06116329524223235 0.1672644813645988 0
0.1842332820909306 0.3775153965442133 0
0.3632582980454494 0.4433979574546487 0
0.5082456852322313 0.251884965442048 0
0.2498982698047701 0.1371415596666148 0
0.2190526674957176 0.1542188161231514 0
0.5365890472165306 0.1354110277627644 0
0.09047135208415233 0.708222099008435 0
0.3456051886006494 0.653732833757889 0
0.4490684781439749 0.7689661086817721 0
0.2717086014120396 0.7718625458629115 0
0.3581398192569167 0.2738354382610527 0
0.5976275542328917 0.4284947051362531 0
0.8234701569458494 0.2475971489025277 0
0.5309923084762498 0.3858325004292038 0
0.4598588240352283 0.6061853589705219 0
0.3964866497631346 0.7093731187775193 0
0.5990025918576781 0.1028643118099646 0
0.5906019311602986 0.2378206305810125 0
0.1531640079577437 0.4621271677298247 0
0.2119425098716527 0.5280599071705427 0
0.2671001580680142 0.5832460439668145 0
0.3853754580142917 0.4309915897494386 0
0.4824644588283791 0.2677434229740794 0
0.2121140441483946 0.7075793181500775 0
0.6256690523331537 0.3605319337349375 0
0.3785165715837231 0.3795547807573332 0
0.2415380820614571 0.6919022724715593 0
0.2470023043550489 0.3423957196894326 0
0.7933937476541586 0.2278664109384294 0
0.7794978599590274 0.4293288544677352 0
0.4035121699181616 0.9059284931824744 0
0.3042454151814716 0.243102446017311 0
0.06148364864485691 0.0321968912027797 0
0.03605132799296647 0.9367266332280735 0
0.2400073138088203 0.6572386280175008 0
0.1570156380049169 0.2235607970688586 0
0.1215232460867616 0.7978578811162662 0
0.9613154728623692 0.05930450012421751 0
0.5318123152019519 0.3281263889208433 0
0.09727000021913931 0.1035592413536891 0
0.2443716550964366 0.06595214574059051 0
0.5982214019237422 0.06560720547951335 0
0.6369212492110085 0.456216047785691 0
0.6192684747528677 0.2226415600595463 0
0.9047811836647013 0.3726867211013826 0
0.540112836126979 0.09575745087795233 0
0.3114183984120883 0.06611561527455537 0
0.2190470081141817 0.1197215532236102 0
0.1259346307756099 0.2416377470472696 0
0.1238284252143892 0.4450048247416394 0
0.06003497914044046 0.7262418217676785 0
0.792948839582628 0.190582538188714 0
0.1565205233930787 0.3272257957581821 0
0.3208219285038467 0.6708134886823511 0
0.09107019698054521 0.8164469681008343 0
0.7201705623191512 0.4780755403461651 0
0.2163579769649781 0.3596730794635608 0
0.3830930659626563 0.03223336157308768 0
0.8004396270476625 0.4451491318557905 0
0.1882719289153743 0.9015779371328755 0
0.4715824307045975 0.9036596413501301 0
0.7355989537315373 0.1941763051325927 0
0.09499818408467992 0.2595264450583594 0
0.06354875657206646 0.277786383127155 0
0.03207298142064846 0.2971899105130134 0
0.8970534021993748 0.4409218189992506 0
0.03220441344740421 0.3367703517436075 0
0.4785338716709711 0.06356111258564355 0
0.6216729967747143 0.1895408065674393 0
0.2455344172999775 0.5680208712222451 0
0.6571939002110219 0.03189611754405627 0
0.4466115641009979 0.4423382602253487 0
0.9018004512714712 0.03075961969830478 0
0.1248865318731696 0.3445703046407009 0
0.1244148280104383 0.6527751406659249 0
0.5825387871708003 0.3307830196081062 0
0.5558777823331719 0.3439201982638241 0
0.03119141254314817 0.6597620716757009 0
0.0955902134415397 0.4963936217953148 0
0.4605804308033687 0.6305157771054104 0
0.1900638129775745 0.09997569064639439 0
0.2099892446519646 0.5987000362318841 0
0.02812457363256239 0.6200000000012484 0
0.06489793677348883 0.5172981348327522 0
0.832715044153207 0.06588930104858365 0
0.2109836835549649 0.6329389951141255 0
0.572672507116078 0.4854810536563859 0
0.09650684524102782 0.5685672508131023 0
0.7614537004803875 0.06247248041896479 0
0.4769160877719548 0.8130178065202018 0
0.09423572741286602 0.4630201997738865 0
0.06045834204686769 0.8001490316858269 0
0.09376078824875118 0.3629630779642645 0
0.1282381294199629 0.9029545528725835 0
0.6781633538266347 0.1934086541323025 0
0.6516448664141283 0.1749489469901703 0
0.09329561487090093 0.6713687577583097 0
0.3178147915998757 0.4670043291347255 0
0.971693171625502 0.3221962758310003 0
0.06253608954238576 0.2430015084593444 0
0.4017122730989325 0.4926328651513505 0
0.03083148746635605 0.2231562305896617 0
0.06196018089217482 0.4441695210804566 0
0.02809632275192181 0.4207048372159781 0
0.02992806370989912 0.7816626008612695 0
0.4476761449001486 0.4177422299400267 0
0.03063500392984869 0.1848463779048091 0
0.3462211226695614 0.9419132681062847 0
0.2614675718596597 0.9379749380002215 0
0.06295692877136017 0.8738504098839074 0
0.3473703349674697 0.7109819616078467 0
0.3312855045219282 0.2245942259485179 0
0.06185688981445408 0.83631617792653 0
0.7088684344978182 0.1803587540961994 0
0.02972576054930072 0.7426573176412321 0
0.9765450218426178 0.2885698179674477 0
0.4460500097798842 0.8758152046878804 0
0.3591163183034266 0.3603319442684108 0
0.06364215285441711 0.5918301252757278 0
0.4678460791487486 0.5164439452615394 0
0.4813513811258546 0.8399108646107971 0
0.9318612565051627 0.3570912441416793 0
0.4378897219362686 0.2969497886033186 0
0.06167753715260337 0.6879287316412377 0
0.4717309044536007 0.9719096107549545 0
0.9724841621154088 0.4722952173563292 0
0.7787090491987694 0.4816295458957821 0
0.3817934768773002 0.5001887293649374 0
0.2207015073570546 0.09083086979067206 0
0.06580207247605516 0.380401782200691 0
0.434719300431492 0.5224918004216946 0
0.4678034169493002 0.4036210196639761 0
0.1316611334900862 0.09777462263482342 0
0.9708923005764283 0.02870277663123522 0
0.9362823594188012 0.2559259000759758 0
0.6179531668549538 0.4854337749478295 0
0.3330076038515153 0.1882887329775036 0
0.02928203230285296 0.0292820323029185 0
0.06257648867032477 0.9064059273626748 0
0.9290300515997389 0.4500897463858442 0
0.7014240889845029 0.4569807292700415 0
0.3187773347393315 0.3733860877023111 0
0.0278790029274358 0.9716843906762754 0
0.8653053342296642 0.4480519661675411 0
0.3378574562071273 0.1505099594765458 0
0.3426803412788515 0.4333146911279966 0
0.6554361003329775 0.4606661076413263 0
0.3640821560576589 0.4201436651868452 0
0.5307792296337178 0.06220267171043734 0
0.2156952881416695 0.9107603074040362 0
0.3636557716691606 0.3993777057005741 0
0.3213999075390561 0.7296361517800636 0
0.9439660162668039 0.2278083284806847 0
0.5117620909307443 0.4672360510187645 0
0.4349921178653798 0.5022210549420423 0
0.4673637816144237 0.3822071339179385 0
0.8219381610844334 0.4519776745343319 0
0.4232019208327253 0.8826962480805843 0
0.4052098815076157 0.05854366892575176 0
0.06242630134683587 0.09168276435930656 0
0.2799046919559635 0.05444668480780088 0
0.9460836307697837 0.1940031748447743 0
0.4919421242850134 0.4565262314834615 0
0.4957979732736638 0.4785569386238144 0
0.3223921808368576 0.7588162584208986 0
0.3218104104006425 0.4462988480814309 0
0.4348695607129225 0.2752218086478733 0
0.3747164698532258 0.5351916387367707 0
0.5728622344804895 0.09145296831855811 0
0.9254503075026923 0.05424833568510301 0
0.3093214386669055 0.3300218615191384 0
0.4624678447250082 0.6510053333770985 0
0.5454355477017685 0.4667848160736906 0
0.4028564984698758 0.3162225102643748 0
0.2940872803659754 0.9426836456449387 0
0.6216326176720741 0.3410099502005999 0
0.6352136487604771 0.05636679675390098 0
$EndNodes
$Elements
13 1726 1 1726
0 1 15 1
1 1 
0 2 15 1
2 2 
0 3 15 1
3 3 
0 4 15 1
4 4 
0 5 15 1
5 5 
0 6 15 1
6 6 
1 1 1 25
7 1 7 
8 7 8 
9 8 9 
10 9 10 
11 10 11 
12 11 12 
13 12 13 
14 13 14 
15 14 15 
16 15 16 
17 16 17 
18 17 18 
19 18 19 
20 19 20 
21 20 21 
22 21 22 
23 22 23 
24 23 24 
25 24 25 
26 25 26 
27 26 27 
28 27 28 
29 28 29 
30 29 30 
31 30 2 
1 2 1 13
32 2 31 
33 31 32 
34 32 33 
35 33 34 
36 34 35 
37 35 36 
38 36 37 
39 37 38 
40 38 39 
41 39 40 
42 40 41 
43 41 42 
44 42 3 
1 3 1 18
45 3 43 
46 43 44 
47 44 45 
48 45 46 
49 46 47 
50 47 48 
51 48 49 
52 49 50 
53 50 51 
54 51 52 
55 52 53 
56 53 54 
57 54 55 
58 55 56 
59 56 57 
60 57 58 
61 58 59 
62 59 4 
1 4 1 18
63 4 60 
64 60 61 
65 61 62 
66 62 63 
67 63 64 
68 64 65 
69 65 66 
70 66 67 
71 67 68 
72 68 69 
73 69 70 
74 70 71 
75 71 72 
76 72 73 
77 73 74 
78 74 75 
79 75 76 
80 76 5 
1 5 1 13
81 5 77 
82 77 78 
83 78 79 
84 79 80 
85 80 81 
86 81 82 
87 82 83 
88 83 84 
89 84 85 
90 85 86 
91 86 87 
92 87 88 
93 88 6 
1 6 1 25
94 6 89 
95 89 90 
96 90 91 
97 91 92 
98 92 93 
99 93 94 
100 94 95 
101 95 96 
102 96 97 
103 97 98 
104 98 99 
105 99 100 
106 100 101 
107 101 102 
108 102 103 
109 103 104 
110 104 105 
111 105 106 
112 106 107 
113 107 108 
114 108 109 
115 109 110 
116 110 111 
117 111 112 
118 112 1 
2 1 2 1608
119 656 572 662 
120 336 495 497 
121 494 263 496 
122 254 632 673 
123 335 628 661 
124 23 24 520 
125 324 397 591 
126 323 553 554 
127 75 76 570 
128 545 253 635 
129 24 151 520 
130 539 254 673 
131 501 122 504 
132 370 525 653 
133 335 550 628 
134 558 210 801 
135 66 67 582 
136 526 483 583 
137 161 627 707 
138 627 548 707 
139 222 526 583 
140 719 597 770 
141 645 414 744 
142 441 629 630 
143 209 508 525 
144 122 501 582 
145 165 175 599 
146 315 316 636 
147 570 76 809 
148 495 336 591 
149 253 545 825 
150 488 507 762 
151 662 572 792 
152 119 121 643 
153 451 518 580 
154 429 394 519 
155 394 626 700 
156 488 762 767 
157 521 125 522 
158 223 119 643 
159 254 539 652 
160 350 672 724 
161 479 646 658 
162 518 444 580 
163 210 558 805 
164 508 209 524 
165 263 494 731 
166 211 541 667 
167 520 151 651 
168 203 670 760 
169 68 69 515 
170 525 508 653 
171 530 270 598 
172 206 208 524 
173 397 499 591 
174 372 546 592 
175 672 639 724 
176 589 647 852 
177 553 323 695 
178 452 202 766 
179 534 115 857 
180 639 672 684 
181 539 540 652 
182 336 497 636 
183 496 263 742 
184 209 206 524 
185 336 324 591 
186 212 639 684 
187 626 457 700 
188 152 165 599 
189 519 394 700 
190 255 66 582 
191 609 645 744 
192 595 351 596 
193 162 104 751 
194 766 202 770 
195 664 558 801 
196 323 554 605 
197 550 335 659 
198 670 466 760 
199 589 579 647 
200 452 567 754 
201 567 452 766 
202 712 436 741 
203 622 601 768 
204 163 170 695 
205 511 276 655 
206 580 469 581 
207 270 530 599 
208 551 550 659 
209 504 515 561 
210 597 595 770 
211 572 656 715 
212 109 212 791 
213 594 595 596 
214 499 821 829 
215 821 304 829 
216 555 162 751 
217 450 451 580 
218 592 546 727 
219 532 434 660 
220 511 436 712 
221 441 630 769 
222 316 336 636 
223 122 68 515 
224 524 208 668 
225 647 289 852 
226 563 467 694 
227 67 122 582 
228 125 521 523 
229 503 517 783 
230 175 270 599 
231 646 479 778 
232 23 520 755 
233 413 315 636 
234 276 511 712 
235 525 370 709 
236 197 563 694 
237 389 622 768 
238 429 519 561 
239 783 517 800 
240 331 685 741 
241 519 504 561 
242 847 838 848 
243 504 122 515 
244 115 534 771 
245 581 469 798 
246 261 534 535 
247 652 540 722 
248 224 503 783 
249 209 525 670 
250 503 224 806 
251 588 587 785 
252 462 565 618 
253 767 221 803 
254 563 487 663 
255 559 532 660 
256 517 139 800 
257 202 719 770 
258 477 617 859 
259 526 584 698 
260 567 560 704 
261 211 667 769 
262 584 590 698 
263 488 767 803 
264 526 222 584 
265 561 648 693 
266 787 334 788 
267 551 117 699 
268 481 713 736 
269 469 527 746 
270 139 517 819 
271 522 125 740 
272 373 372 696 
273 95 138 799 
274 308 201 549 
275 542 787 788 
276 617 606 859 
277 444 518 651 
278 523 566 811 
279 414 645 778 
280 322 567 704 
281 722 540 854 
282 506 381 533 
283 579 589 624 
284 531 710 835 
285 681 614 765 
286 462 618 750 
287 413 636 637 
288 621 392 717 
289 598 270 654 
290 147 557 693 
291 710 531 802 
292 323 163 695 
293 795 505 836 
294 243 579 624 
295 212 684 791 
296 492 493 725 
297 518 520 651 
298 548 687 707 
299 516 264 833 
300 515 69 648 
301 116 536 727 
302 532 401 714 
303 562 563 663 
304 351 595 597 
305 588 123 839 
306 541 211 757 
307 629 441 773 
308 670 525 860 
309 566 523 743 
310 469 746 798 
311 548 549 687 
312 785 587 812 
313 750 618 824 
314 264 516 752 
315 583 483 840 
316 123 588 785 
317 372 369 546 
318 293 346 537 
319 311 308 549 
320 208 220 668 
321 648 147 693 
322 502 537 538 
323 533 534 857 
324 238 193 738 
325 117 551 659 
326 557 556 693 
327 456 650 824 
328 537 346 538 
329 673 632 846 
330 261 535 536 
331 626 505 795 
332 198 578 637 
333 538 346 575 
334 440 591 829 
335 372 592 696 
336 210 745 801 
337 223 847 848 
338 575 551 699 
339 433 522 544 
340 618 456 824 
341 381 379 533 
342 498 796 821 
343 658 718 823 
344 237 527 736 
345 492 725 845 
346 573 553 695 
347 182 573 695 
348 170 182 695 
349 614 681 817 
350 782 530 850 
351 392 621 844 
352 585 238 738 
353 138 762 808 
354 599 530 782 
355 361 429 556 
356 75 570 745 
357 591 499 829 
358 536 116 820 
359 713 237 736 
360 440 495 591 
361 295 293 537 
362 561 515 648 
363 565 462 729 
364 714 401 743 
365 153 146 647 
366 547 311 549 
367 642 643 756 
368 421 419 633 
369 602 334 603 
370 138 735 799 
371 685 463 741 
372 587 289 812 
373 658 455 718 
374 745 571 801 
375 413 637 752 
376 608 678 793 
377 224 564 565 
378 314 311 547 
379 146 289 647 
380 358 361 556 
381 265 260 559 
382 379 454 533 
383 500 381 506 
384 762 507 808 
385 101 334 602 
386 498 573 796 
387 325 432 552 
388 432 548 627 
389 377 376 379 
390 280 593 750 
391 434 532 714 
392 369 368 546 
393 136 144 679 
394 531 246 802 
395 354 321 562 
396 224 40 564 
397 554 552 627 
398 643 121 756 
399 21 132 611 
400 185 214 654 
401 412 489 550 
402 568 245 572 
403 379 376 454 
404 347 405 412 
405 419 481 633 
406 412 405 489 
407 298 532 559 
408 354 562 663 
409 502 538 764 
410 351 597 708 
411 270 185 654 
412 513 530 598 
413 565 564 618 
414 346 294 347 
415 467 576 694 
416 223 643 847 
417 47 48 566 
418 380 379 381 
419 533 454 534 
420 271 230 560 
421 501 502 856 
422 293 294 346 
423 79 245 568 
424 368 544 545 
425 216 241 623 
426 291 243 624 
427 560 230 704 
428 528 514 529 
429 227 218 576 
430 571 569 715 
431 367 366 368 
432 257 351 708 
433 382 381 500 
434 375 373 376 
435 501 409 502 
436 513 512 514 
437 437 513 598 
438 265 559 660 
439 158 222 583 
440 513 514 528 
441 14 263 574 
442 582 501 856 
443 296 136 679 
444 450 580 581 
445 259 227 576 
446 411 553 573 
447 553 552 554 
448 293 291 294 
449 371 369 372 
450 570 569 571 
451 198 17 578 
452 246 531 826 
453 543 463 685 
454 364 365 366 
455 538 575 699 
456 527 237 746 
457 363 339 364 
458 81 606 617 
459 366 433 544 
460 655 246 826 
461 391 358 556 
462 368 545 546 
463 357 356 358 
464 426 424 577 
465 649 438 668 
466 723 604 761 
467 376 373 696 
468 338 265 339 
469 382 500 641 
470 325 317 432 
471 186 216 623 
472 437 512 513 
473 367 368 369 
474 436 331 741 
475 387 568 569 
476 358 360 361 
477 433 521 522 
478 290 243 291 
479 243 180 579 
480 411 552 553 
481 411 325 552 
482 409 295 537 
483 550 489 628 
484 403 250 674 
485 220 234 668 
486 395 560 567 
487 355 354 356 
488 298 401 532 
489 361 393 394 
490 387 569 570 
491 534 261 771 
492 368 366 544 
493 298 399 401 
494 249 260 265 
495 552 432 627 
496 82 133 606 
497 361 394 429 
498 375 376 377 
499 424 421 633 
500 609 644 645 
501 292 291 293 
502 613 600 616 
503 364 366 367 
504 277 298 559 
505 12 126 600 
506 438 524 668 
507 610 611 612 
508 549 201 687 
509 371 372 373 
510 391 556 557 
511 332 327 395 
512 327 271 560 
513 398 436 437 
514 437 511 512 
515 432 547 548 
516 260 277 559 
517 642 641 643 
518 357 358 391 
519 347 404 405 
520 346 347 575 
521 180 172 579 
522 179 203 604 
523 338 339 363 
524 577 424 633 
525 403 712 741 
526 41 456 564 
527 594 458 595 
528 277 297 298 
529 562 467 563 
530 249 265 338 
531 364 339 365 
532 395 327 560 
533 545 635 831 
534 450 581 780 
535 377 379 380 
536 367 370 653 
537 398 598 654 
538 317 314 547 
539 355 356 357 
540 249 338 649 
541 364 367 653 
542 366 365 433 
543 172 153 647 
544 412 551 575 
545 187 180 243 
546 358 356 360 
547 387 78 568 
548 236 248 249 
549 319 301 467 
550 353 321 354 
551 302 304 470 
552 338 438 649 
553 321 319 562 
554 266 331 398 
555 36 139 619 
556 410 409 501 
557 502 409 537 
558 750 593 828 
559 569 568 572 
560 324 317 325 
561 41 42 456 
562 332 395 458 
563 126 13 574 
564 601 100 602 
565 221 99 601 
566 319 467 562 
567 469 443 527 
568 167 47 566 
569 11 600 613 
570 77 78 387 
571 332 458 594 
572 27 211 630 
573 490 587 588 
574 156 158 583 
575 444 443 469 
576 18 264 578 
577 39 40 224 
578 365 339 660 
579 361 360 393 
580 408 295 409 
581 616 600 725 
582 610 20 611 
583 353 354 355 
584 264 19 610 
585 241 302 623 
586 642 756 790 
587 347 412 575 
588 397 325 411 
589 289 587 852 
590 158 160 222 
591 380 381 382 
592 633 481 736 
593 574 263 731 
594 607 84 644 
595 412 550 551 
596 572 245 792 
597 564 456 618 
598 360 356 663 
599 316 314 317 
600 614 613 616 
601 394 393 626 
602 249 248 260 
603 103 104 162 
604 498 411 573 
605 301 259 576 
606 12 13 126 
607 100 101 602 
608 98 99 221 
609 609 607 644 
610 133 607 608 
611 14 15 263 
612 298 297 399 
613 79 80 245 
614 101 102 334 
615 529 514 531 
616 16 17 198 
617 106 107 140 
618 221 601 622 
619 82 83 133 
620 195 193 238 
621 442 426 443 
622 20 21 611 
623 584 222 723 
624 18 19 264 
625 401 399 634 
626 21 22 132 
627 434 365 660 
628 398 437 598 
629 432 317 547 
630 251 613 614 
631 512 511 655 
632 437 436 511 
633 398 331 436 
634 187 243 290 
635 214 266 654 
636 661 628 804 
637 104 105 751 
638 46 47 167 
639 290 291 292 
640 36 37 139 
641 44 45 280 
642 487 360 663 
643 81 82 606 
644 133 83 607 
645 257 283 351 
646 95 96 138 
647 204 206 209 
648 623 470 716 
649 344 250 403 
650 318 301 319 
651 467 301 576 
652 579 172 647 
653 40 41 564 
654 169 179 604 
655 556 429 693 
656 444 469 580 
657 92 176 625 
658 508 363 653 
659 234 236 649 
660 463 543 737 
661 11 12 600 
662 179 200 203 
663 302 470 623 
664 443 426 577 
665 70 71 147 
666 8 9 620 
667 280 45 593 
668 78 79 568 
669 46 167 593 
670 13 14 574 
671 73 74 210 
672 245 80 617 
673 99 100 601 
674 17 18 578 
675 151 25 629 
676 286 259 301 
677 370 369 371 
678 212 638 639 
679 347 294 404 
680 442 443 444 
681 45 46 593 
682 19 20 610 
683 548 547 549 
684 513 528 530 
685 438 363 508 
686 320 319 321 
687 629 26 630 
688 393 505 626 
689 251 10 613 
690 35 36 619 
691 24 25 151 
692 292 293 295 
693 489 405 490 
694 251 614 615 
695 29 30 390 
696 26 27 630 
697 287 91 625 
698 10 11 613 
699 644 228 645 
700 234 235 236 
701 220 233 234 
702 316 317 324 
703 294 291 624 
704 111 392 638 
705 35 619 632 
706 482 382 641 
707 49 50 125 
708 92 93 176 
709 25 26 629 
710 374 373 375 
711 90 91 287 
712 254 34 632 
713 352 321 353 
714 27 28 211 
715 144 156 679 
716 324 325 397 
717 328 327 332 
718 162 542 788 
719 408 409 410 
720 241 272 302 
721 236 247 248 
722 187 290 631 
723 83 84 607 
724 212 110 638 
725 109 110 212 
726 527 443 577 
727 9 10 251 
728 80 81 617 
729 91 92 625 
730 419 417 481 
731 236 249 649 
732 433 434 521 
733 344 403 463 
734 51 52 253 
735 326 271 327 
736 286 301 318 
737 67 68 122 
738 302 303 304 
739 410 501 504 
740 397 411 498 
741 608 607 609 
742 558 557 774 
743 266 398 654 
744 363 364 653 
745 111 112 392 
746 487 563 849 
747 399 461 634 
748 9 251 620 
749 604 203 760 
750 110 111 638 
751 646 657 658 
752 534 454 535 
753 260 262 277 
754 85 228 644 
755 333 332 594 
756 393 487 505 
757 65 66 255 
758 34 35 632 
759 70 147 648 
760 203 204 670 
761 84 85 644 
762 351 283 596 
763 53 54 116 
764 318 319 320 
765 339 265 660 
766 277 284 297 
767 69 70 648 
768 620 615 621 
769 425 424 426 
770 423 421 424 
771 356 354 663 
772 33 34 254 
773 166 153 172 
774 63 64 117 
775 718 287 823 
776 85 86 228 
777 146 142 289 
778 545 544 825 
779 460 349 733 
780 32 33 652 
781 441 426 442 
782 266 267 331 
783 645 228 646 
784 214 231 266 
785 440 494 495 
786 279 343 543 
787 367 369 370 
788 614 616 765 
789 52 53 635 
790 175 185 270 
791 203 200 204 
792 169 604 723 
793 86 87 657 
794 251 615 620 
795 33 254 652 
796 234 649 668 
797 234 233 235 
798 391 557 558 
799 399 400 461 
800 329 439 440 
801 506 533 857 
802 55 56 261 
803 495 496 497 
804 173 172 180 
805 338 363 438 
806 355 357 359 
807 87 88 455 
808 657 455 658 
809 546 545 831 
810 228 86 657 
811 65 255 640 
812 646 228 657 
813 43 44 650 
814 348 281 349 
815 222 160 723 
816 236 235 247 
817 386 306 414 
818 181 180 187 
819 320 321 352 
820 481 417 697 
821 676 247 697 
822 601 602 768 
823 402 349 460 
824 403 674 712 
825 273 259 286 
826 302 272 303 
827 388 382 482 
828 422 427 539 
829 423 424 425 
830 131 136 296 
831 310 308 311 
832 340 453 665 
833 190 188 191 
834 258 227 259 
835 678 476 793 
836 226 256 257 
837 341 285 415 
838 340 383 453 
839 246 655 855 
840 438 508 524 
841 87 455 657 
842 57 58 115 
843 482 641 642 
844 442 444 651 
845 313 311 314 
846 283 406 596 
847 204 209 670 
848 239 215 250 
849 260 248 262 
850 183 171 276 
851 194 193 195 
852 395 567 766 
853 371 373 374 
854 164 155 246 
855 315 314 316 
856 326 327 328 
857 418 417 419 
858 269 250 344 
859 433 365 434 
860 563 197 849 
861 527 577 736 
862 192 191 193 
863 393 360 487 
864 472 345 473 
865 416 415 417 
866 425 426 441 
867 238 795 836 
868 304 303 329 
869 196 195 197 
870 328 332 333 
871 156 157 158 
872 399 297 400 
873 539 427 540 
874 188 187 631 
875 474 473 478 
876 253 52 635 
877 451 510 518 
878 257 282 283 
879 448 449 450 
880 418 420 428 
881 611 132 726 
882 445 446 448 
883 420 419 421 
884 156 583 679 
885 144 149 156 
886 416 418 666 
887 61 62 335 
888 540 427 541 
889 353 355 656 
890 415 676 697 
891 807 605 851 
892 191 188 631 
893 492 384 493 
894 263 15 742 
895 286 318 337 
896 407 295 408 
897 64 65 640 
898 309 312 445 
899 405 404 586 
900 279 543 685 
901 473 737 758 
902 277 262 284 
903 16 198 742 
904 274 299 300 
905 440 439 494 
906 477 352 662 
907 283 362 406 
908 636 497 637 
909 352 353 662 
910 418 419 420 
911 521 434 714 
912 422 421 423 
913 216 240 241 
914 348 349 402 
915 422 423 427 
916 258 259 273 
917 7 8 717 
918 416 417 418 
919 464 386 479 
920 307 309 669 
921 402 460 486 
922 53 116 635 
923 612 611 726 
924 495 494 496 
925 590 584 761 
926 341 415 416 
927 266 231 267 
928 166 172 173 
929 375 377 590 
930 241 242 272 
931 420 421 422 
932 503 383 517 
933 206 207 208 
934 479 658 823 
935 453 383 503 
936 355 359 656 
937 404 294 624 
938 208 219 220 
939 220 232 233 
940 357 391 664 
941 480 478 555 
942 158 159 160 
943 557 147 774 
944 62 63 659 
945 374 375 396 
946 678 608 834 
947 630 211 769 
948 476 352 477 
949 414 306 675 
950 297 284 665 
951 620 621 717 
952 309 445 669 
953 204 205 206 
954 340 285 341 
955 320 352 476 
956 262 248 676 
957 181 187 188 
958 235 233 237 
959 189 202 452 
960 418 428 666 
961 359 357 664 
962 179 199 200 
963 169 178 179 
964 248 247 676 
965 316 324 336 
966 160 168 169 
967 4 60 113 
968 596 406 759 
969 173 180 181 
970 89 90 718 
971 299 281 348 
972 472 473 474 
973 63 117 659 
974 269 344 345 
975 558 774 805 
976 391 558 664 
977 576 218 694 
978 518 510 520 
979 284 285 340 
980 258 273 305 
981 194 195 196 
982 397 498 499 
983 605 554 851 
984 484 342 485 
985 536 535 592 
986 305 273 306 
987 340 341 383 
988 192 193 194 
989 310 311 313 
990 329 384 439 
991 257 256 282 
992 284 262 285 
993 385 306 386 
994 331 267 685 
995 422 539 673 
996 239 250 269 
997 431 430 459 
998 190 191 192 
999 274 252 281 
1000 219 207 244 
1001 60 61 661 
1002 329 303 384 
1003 299 348 350 
1004 269 345 471 
1005 380 382 388 
1006 225 628 815 
1007 313 314 315 
1008 273 286 675 
1009 423 425 667 
1010 396 375 590 
1011 241 240 242 
1012 274 281 299 
1013 250 215 674 
1014 285 262 676 
1015 488 468 507 
1016 256 227 258 
1017 242 240 252 
1018 439 384 492 
1019 450 449 451 
1020 606 133 793 
1021 523 521 714 
1022 448 446 449 
1023 541 427 667 
1024 427 423 667 
1025 451 449 509 
1026 362 282 430 
1027 305 306 385 
1028 385 386 464 
1029 431 459 491 
1030 461 400 462 
1031 44 280 650 
1032 284 340 665 
1033 445 312 446 
1034 474 478 480 
1035 490 586 587 
1036 471 345 472 
1037 286 337 675 
1038 220 219 232 
1039 208 207 219 
1040 158 157 159 
1041 268 288 435 
1042 288 271 326 
1043 283 282 362 
1044 292 295 407 
1045 643 641 847 
1046 465 333 468 
1047 183 276 674 
1048 279 342 343 
1049 170 177 182 
1050 206 205 207 
1051 268 230 271 
1052 229 213 230 
1053 132 22 755 
1054 400 297 665 
1055 156 149 157 
1056 415 285 676 
1057 451 509 510 
1058 428 420 673 
1059 727 546 831 
1060 242 252 274 
1061 446 312 447 
1062 267 278 279 
1063 76 5 809 
1064 362 430 431 
1065 214 229 231 
1066 194 196 217 
1067 313 315 378 
1068 216 239 240 
1069 198 637 843 
1070 226 227 256 
1071 204 200 205 
1072 536 592 727 
1073 566 48 811 
1074 165 153 166 
1075 216 215 239 
1076 267 231 278 
1077 189 188 190 
1078 186 183 215 
1079 199 178 201 
1080 169 168 178 
1081 179 178 199 
1082 584 723 761 
1083 429 561 693 
1084 226 257 708 
1085 420 422 673 
1086 177 171 183 
1087 460 733 747 
1088 341 416 671 
1089 58 59 677 
1090 410 504 519 
1091 318 320 678 
1092 416 666 671 
1093 31 32 722 
1094 148 143 150 
1095 152 146 153 
1096 586 404 589 
1097 348 402 672 
1098 185 213 214 
1099 407 408 457 
1100 160 159 168 
1101 184 174 322 
1102 631 290 692 
1103 226 218 227 
1104 328 333 465 
1105 378 315 413 
1106 378 413 516 
1107 349 281 720 
1108 343 342 484 
1109 309 308 310 
1110 154 163 323 
1111 300 299 681 
1112 517 383 671 
1113 353 656 662 
1114 279 278 342 
1115 178 168 687 
1116 306 273 675 
1117 217 196 218 
1118 309 310 312 
1119 307 201 308 
1120 454 376 696 
1121 181 188 189 
1122 124 128 129 
1123 465 468 488 
1124 154 150 155 
1125 484 485 542 
1126 337 318 678 
1127 388 482 483 
1128 170 164 171 
1129 383 341 671 
1130 407 457 585 
1131 217 218 226 
1132 387 570 809 
1133 98 221 767 
1134 186 215 216 
1135 350 348 672 
1136 189 190 202 
1137 493 384 688 
1138 177 183 186 
1139 129 130 131 
1140 138 96 762 
1141 189 452 705 
1142 159 157 161 
1143 274 300 689 
1144 165 174 175 
1145 145 142 146 
1146 307 308 309 
1147 170 171 177 
1148 288 326 389 
1149 131 135 136 
1150 154 155 163 
1151 268 271 288 
1152 163 155 164 
1153 136 143 144 
1154 569 572 715 
1155 144 148 149 
1156 737 543 758 
1157 175 184 185 
1158 320 476 678 
1159 232 779 798 
1160 144 143 148 
1161 199 201 307 
1162 136 135 143 
1163 214 213 229 
1164 131 130 135 
1165 417 415 697 
1166 196 197 694 
1167 193 191 738 
1168 125 50 740 
1169 589 404 624 
1170 229 230 268 
1171 215 183 674 
1172 165 166 174 
1173 370 371 709 
1174 74 75 745 
1175 299 350 681 
1176 152 153 165 
1177 303 272 688 
1178 490 405 586 
1179 402 486 684 
1180 759 406 781 
1181 406 362 691 
1182 645 646 778 
1183 163 164 170 
1184 134 127 137 
1185 39 224 783 
1186 307 669 702 
1187 145 146 152 
1188 185 184 213 
1189 256 258 680 
1190 258 305 680 
1191 135 130 330 
1192 141 145 275 
1193 272 242 689 
1194 374 396 466 
1195 448 450 780 
1196 267 279 685 
1197 103 162 788 
1198 148 150 154 
1199 401 634 841 
1200 594 596 759 
1201 105 106 749 
1202 141 137 142 
1203 388 483 526 
1204 334 102 788 
1205 481 697 713 
1206 252 240 683 
1207 134 141 686 
1208 247 235 713 
1209 8 620 717 
1210 129 128 130 
1211 4 113 114 
1212 252 683 720 
1213 175 174 184 
1214 240 239 683 
1215 141 142 145 
1216 239 269 683 
1217 683 471 720 
1218 59 4 475 
1219 282 256 680 
1220 29 390 757 
1221 672 402 684 
1222 269 471 683 
1223 384 303 688 
1224 344 463 737 
1225 128 127 134 
1226 61 335 661 
1227 117 64 640 
1228 290 292 692 
1229 772 465 803 
1230 217 708 711 
1231 117 640 699 
1232 166 173 682 
1233 430 282 680 
1234 242 274 689 
1235 211 28 757 
1236 120 118 225 
1237 201 178 687 
1238 205 200 702 
1239 108 109 791 
1240 124 127 128 
1241 200 199 702 
1242 396 590 761 
1243 688 272 689 
1244 520 510 755 
1245 512 655 826 
1246 590 377 698 
1247 362 431 691 
1248 631 692 738 
1249 121 120 123 
1250 124 123 127 
1251 490 588 815 
1252 447 312 690 
1253 310 313 690 
1254 51 253 740 
1255 218 196 694 
1256 600 126 725 
1257 509 449 701 
1258 134 137 141 
1259 656 359 715 
1260 457 408 700 
1261 192 194 711 
1262 114 119 223 
1263 121 123 124 
1264 186 623 716 
1265 312 310 690 
1266 680 305 721 
1267 113 60 661 
1268 697 247 713 
1269 408 410 700 
1270 119 118 120 
1271 119 120 121 
1272 473 345 737 
1273 628 489 815 
1274 268 435 703 
1275 278 231 703 
1276 3 43 810 
1277 390 722 854 
1278 313 378 690 
1279 535 454 696 
1280 5 77 809 
1281 90 287 718 
1282 114 113 118 
1283 264 610 833 
1284 445 448 753 
1285 449 446 701 
1286 377 380 698 
1287 114 118 119 
1288 167 634 828 
1289 708 597 711 
1290 446 447 701 
1291 292 407 692 
1292 194 217 711 
1293 230 213 704 
1294 174 166 682 
1295 139 37 800 
1296 202 190 719 
1297 115 58 677 
1298 677 475 838 
1299 217 226 708 
1300 231 229 703 
1301 335 62 659 
1302 322 174 682 
1303 199 307 702 
1304 190 192 719 
1305 796 470 821 
1306 371 374 709 
1307 380 388 698 
1308 430 680 721 
1309 235 237 713 
1310 815 588 839 
1311 244 207 728 
1312 692 585 738 
1313 32 652 722 
1314 73 210 805 
1315 141 275 686 
1316 407 585 692 
1317 447 690 730 
1318 439 492 731 
1319 410 519 700 
1320 173 181 705 
1321 621 615 724 
1322 184 322 704 
1323 485 342 734 
1324 177 186 716 
1325 790 296 816 
1326 125 523 811 
1327 182 177 716 
1328 687 168 707 
1329 690 378 730 
1330 229 268 703 
1331 107 108 786 
1332 205 702 728 
1333 674 276 712 
1334 213 184 704 
1335 592 535 696 
1336 181 189 705 
1337 740 253 825 
1338 459 430 721 
1339 147 71 774 
1340 150 143 710 
1341 168 159 707 
1342 237 233 746 
1343 665 453 729 
1344 333 594 759 
1345 748 480 749 
1346 651 151 773 
1347 30 2 818 
1348 743 401 841 
1349 278 703 734 
1350 281 252 720 
1351 159 161 707 
1352 143 135 710 
1353 2 31 818 
1354 192 711 719 
1355 388 526 698 
1356 702 669 728 
1357 131 296 790 
1358 374 466 709 
1359 462 400 729 
1360 289 142 812 
1361 121 124 756 
1362 305 385 721 
1363 160 169 723 
1364 130 128 706 
1365 406 691 781 
1366 50 51 740 
1367 152 599 782 
1368 691 431 735 
1369 679 583 840 
1370 622 389 772 
1371 59 475 677 
1372 42 3 810 
1373 682 173 705 
1374 330 130 706 
1375 703 435 734 
1376 128 134 706 
1377 441 442 773 
1378 287 625 794 
1379 474 480 748 
1380 135 330 710 
1381 261 56 771 
1382 246 155 802 
1383 638 392 844 
1384 134 686 706 
1385 531 514 826 
1386 567 322 754 
1387 615 614 817 
1388 637 578 752 
1389 149 605 807 
1390 400 665 729 
1391 479 386 778 
1392 729 453 806 
1393 494 439 731 
1394 691 735 808 
1395 197 195 836 
1396 207 205 728 
1397 577 633 736 
1398 116 54 820 
1399 786 108 791 
1400 105 749 751 
1401 578 264 752 
1402 112 1 822 
1403 1 7 822 
1404 509 701 726 
1405 349 720 733 
1406 378 516 730 
1407 459 721 739 
1408 425 441 769 
1409 304 329 829 
1410 127 123 785 
1411 471 472 733 
1412 276 171 855 
1413 721 385 739 
1414 414 675 744 
1415 431 491 735 
1416 655 276 855 
1417 463 403 741 
1418 261 536 820 
1419 49 125 811 
1420 6 89 827 
1421 753 448 780 
1422 345 344 737 
1423 570 571 745 
1424 573 182 796 
1425 359 664 842 
1426 565 729 806 
1427 57 115 771 
1428 342 278 734 
1429 457 626 795 
1430 15 16 742 
1431 88 6 827 
1432 725 126 845 
1433 106 140 749 
1434 244 728 753 
1435 711 597 719 
1436 389 326 772 
1437 779 581 798 
1438 385 464 739 
1439 622 772 803 
1440 288 389 763 
1441 688 689 732 
1442 689 300 732 
1443 94 95 799 
1444 732 300 765 
1445 493 688 732 
1446 628 225 804 
1447 150 710 802 
1448 637 497 843 
1449 232 219 779 
1450 506 677 838 
1451 328 465 772 
1452 191 631 738 
1453 720 471 733 
1454 197 836 849 
1455 571 715 842 
1456 544 522 825 
1457 634 167 841 
1458 733 472 747 
1459 233 232 746 
1460 675 337 744 
1461 605 149 858 
1462 140 748 749 
1463 625 176 797 
1464 210 74 745 
1465 472 474 747 
1466 612 730 833 
1467 593 167 828 
1468 55 261 820 
1469 323 605 858 
1470 428 673 846 
1471 480 555 751 
1472 716 470 796 
1473 93 94 789 
1474 542 485 787 
1475 157 149 807 
1476 461 462 750 
1477 742 198 843 
1478 523 714 743 
1479 483 482 816 
1480 164 246 855 
1481 154 323 858 
1482 145 152 782 
1483 642 790 816 
1484 22 23 755 
1485 699 640 764 
1486 516 413 752 
1487 763 389 768 
1488 728 669 753 
1489 486 460 784 
1490 554 627 851 
1491 499 498 821 
1492 542 162 814 
1493 602 603 768 
1494 735 138 808 
1495 28 29 757 
1496 337 678 834 
1497 458 395 766 
1498 762 97 767 
1499 617 477 792 
1500 162 555 814 
1501 225 118 804 
1502 458 766 770 
1503 666 428 837 
1504 781 691 808 
1505 4 114 848 
1506 640 255 764 
1507 56 57 771 
1508 124 129 756 
1509 543 343 758 
1510 726 132 861 
1511 151 629 773 
1512 595 458 770 
1513 478 473 758 
1514 96 97 762 
1515 522 740 825 
1516 468 333 759 
1517 669 445 753 
1518 224 565 806 
1519 705 452 754 
1520 176 93 789 
1521 794 625 797 
1522 732 765 813 
1523 149 148 858 
1524 616 725 813 
1525 461 750 828 
1526 604 760 761 
1527 749 480 751 
1528 71 72 774 
1529 477 662 792 
1530 603 334 787 
1531 475 4 848 
1532 747 748 784 
1533 509 726 861 
1534 97 98 767 
1535 466 396 760 
1536 538 699 764 
1537 612 726 853 
1538 730 612 853 
1539 686 830 832 
1540 587 586 852 
1541 435 288 763 
1542 123 120 839 
1543 322 682 754 
1544 238 585 795 
1545 789 94 799 
1546 468 759 781 
1547 555 478 777 
1548 606 793 859 
1549 300 681 765 
1550 517 671 819 
1551 664 801 842 
1552 747 474 748 
1553 776 739 797 
1554 132 755 861 
1555 757 390 854 
1556 350 724 817 
1557 460 747 784 
1558 115 677 857 
1559 763 603 775 
1560 724 639 844 
1561 244 753 780 
1562 682 705 754 
1563 140 107 786 
1564 500 838 847 
1565 758 343 777 
1566 667 425 769 
1567 621 724 844 
1568 459 739 776 
1569 730 516 833 
1570 756 129 790 
1571 837 428 846 
1572 182 716 796 
1573 486 784 786 
1574 442 651 773 
1575 113 661 804 
1576 326 328 772 
1577 38 39 783 
1578 502 764 856 
1579 500 506 838 
1580 386 414 778 
1581 38 783 800 
1582 491 459 776 
1583 102 103 788 
1584 774 72 805 
1585 245 617 792 
1586 507 468 781 
1587 731 492 845 
1588 133 608 793 
1589 478 758 777 
1590 775 603 787 
1591 225 815 839 
1592 221 622 803 
1593 219 244 779 
1594 581 779 780 
1595 255 582 856 
1596 641 500 847 
1597 343 484 777 
1598 137 127 785 
1599 496 742 843 
1600 710 330 835 
1601 681 350 817 
1602 89 718 827 
1603 435 763 775 
1604 603 763 768 
1605 456 42 810 
1606 760 396 761 
1607 72 73 805 
1608 486 786 791 
1609 77 387 809 
1610 528 529 830 
1611 485 734 775 
1612 275 145 782 
1613 129 131 790 
1614 447 730 853 
1615 619 139 837 
1616 585 457 795 
1617 7 717 822 
1618 287 794 823 
1619 37 38 800 
1620 464 479 794 
1621 608 609 834 
1622 627 161 851 
1623 48 49 811 
1624 726 701 853 
1625 635 116 831 
1626 677 506 857 
1627 838 475 848 
1628 830 529 832 
1629 684 486 791 
1630 489 490 815 
1631 650 456 810 
1632 155 150 802 
1633 491 789 799 
1634 514 512 826 
1635 483 816 840 
1636 54 55 820 
1637 464 794 797 
1638 484 542 814 
1639 167 566 841 
1640 137 785 812 
1641 470 304 821 
1642 574 731 845 
1643 390 30 818 
1644 529 531 835 
1645 610 612 833 
1646 126 574 845 
1647 453 503 806 
1648 530 528 850 
1649 118 113 804 
1650 176 776 797 
1651 485 775 787 
1652 465 488 803 
1653 116 727 831 
1654 466 670 860 
1655 650 280 824 
1656 161 157 807 
1657 784 140 786 
1658 734 435 775 
1659 718 455 827 
1660 392 112 822 
1661 329 440 829 
1662 43 650 810 
1663 142 137 812 
1664 31 722 818 
1665 634 461 828 
1666 195 238 836 
1667 296 679 840 
1668 779 244 780 
1669 639 638 844 
1670 455 88 827 
1671 632 619 846 
1672 776 176 789 
1673 541 757 854 
1674 748 140 784 
1675 765 616 813 
1676 706 686 832 
1677 555 777 814 
1678 482 642 816 
1679 717 392 822 
1680 671 666 819 
1681 755 510 861 
1682 735 491 799 
1683 507 781 808 
1684 725 493 813 
1685 777 484 814 
1686 739 464 797 
1687 836 505 849 
1688 497 496 843 
1689 505 487 849 
1690 746 232 798 
1691 171 164 855 
1692 540 541 854 
1693 114 223 848 
1694 724 615 817 
1695 586 589 852 
1696 491 776 789 
1697 476 477 859 
1698 609 744 834 
1699 722 390 818 
1700 510 509 861 
1701 715 359 842 
1702 148 154 858 
1703 493 732 813 
1704 686 275 830 
1705 330 706 832 
1706 120 225 839 
1707 701 447 853 
1708 830 275 850 
1709 280 750 824 
1710 619 837 846 
1711 764 255 856 
1712 528 830 850 
1713 525 709 860 
1714 744 337 834 
1715 709 466 860 
1716 566 743 841 
1717 794 479 823 
1718 816 296 840 
1719 139 819 837 
1720 793 476 859 
1721 275 782 850 
1722 330 832 835 
1723 801 571 842 
1724 819 666 837 
1725 832 529 835 
1726 161 807 851 
$EndElements
