$MeshFormat
4.1 0 8
$EndMeshFormat
$PhysicalNames
5
1 100 "左端"
1 101 "右端"
1 102 "底边"
1 103 "顶边"
2 200 "板"
$EndPhysicalNames
$Entities
4 4 1 0
1 0 0 0 0 
2 2 0 0 0 
3 2 0.5 0 0 
4 0 0.5 0 0 
1 0 0 0 2 0 0 1 102 2 1 -2 
2 2 0 0 2 0.5 0 1 101 2 2 -3 
3 0 0.5 0 2 0.5 0 1 103 2 3 -4 
4 0 0 0 0 0.5 0 1 100 2 4 -1 
1 0 0 0 2 0.5 0 1 200 4 1 2 3 4 
$EndEntities
$Nodes
9 150 1 150
0 1 0 1
1
0 0 0
0 2 0 1
2
2 0 0
0 3 0 1
3
2 0.5 0
0 4 0 1
4
0 0.5 0
1 1 0 19
5
6
7
8
9
10
11
12
13
14
15
16
17
18
19
20
21
22
23
0.09999999999979935 0 0
0.1999999999996294 0 0
0.2999999999994072 0 0
0.3999999999991158 0 0
0.4999999999988243 0 0
0.5999999999985328 0 0
0.6999999999982414 0 0
0.7999999999979499 0 0
0.8999999999976585 0 0
0.9999999999973885 0 0
1.09999999999763 0 0
1.199999999997894 0 0
1.299999999998157 0 0
1.39999999999842 0 0
1.499999999998683 0 0
1.599999999998947 0 0
1.69999999999921 0 0
1.799999999999474 0 0
1.899999999999737 0 0
1 2 0 4
24
25
26
27
2 0.09999999999977895 0
2 0.1999999999994875 0
2 0.2999999999994734 0
2 0.3999999999997367 0
1 3 0 19
28
29
30
31
32
33
34
35
36
37
38
39
40
41
42
43
44
45
46
1.899999999999584 0.5 0
1.799999999999167 0.5 0
1.699999999999306 0.5 0
1.6 0.5 0
1.500000000000693 0.5 0
1.400000000001387 0.5 0
1.30000000000208 0.5 0
1.200000000002774 0.5 0
1.100000000003467 0.5 0
1.000000000004117 0.5 0
0.9000000000037447 0.5 0
0.8000000000033287 0.5 0
0.7000000000029127 0.5 0
0.6000000000024965 0.5 0
0.5000000000020806 0.5 0
0.4000000000016644 0.5 0
0.3000000000012482 0.5 0
0.200000000000832 0.5 0
0.100000000000416 0.5 0
1 4 0 4
47
48
49
50
0 0.3999999999999999 0
0 0.3000000000006934 0
0 0.2000000000008322 0
0 0.1000000000004161 0
2 1 0 100
51
52
53
54
55
56
57
58
59
60
61
62
63
64
65
66
67
68
69
70
71
72
73
74
75
76
77
78
79
80
81
82
83
84
85
86
87
88
89
90
91
92
93
94
95
96
97
98
99
100
101
102
103
104
105
106
107
108
109
110
111
112
113
114
115
116
117
118
119
120
121
122
123
124
125
126
127
128
129
130
131
132
133
134
135
136
137
138
139
140
141
142
143
144
145
146
147
148
149
150
1.649999999999653 0.413397459622157 0
1.45000000000104 0.4133974596221568 0
1.248669361009785 0.415800307925372 0
1.050000000003823 0.4133974596220558 0
0.3499999999992615 0.08660254037819146 0
0.5499999999986785 0.0866025403781914 0
0.7499999999980956 0.08660254037819146 0
0.9499999999975235 0.08660254037820078 0
1.749999999999268 0.08660254037874801 0
1.549999999998903 0.08660254037861222 0
1.349999999998402 0.08660254037864197 0
0.2500000000011211 0.4133974596212037 0
0.4500000000019773 0.413397459621233 0
1.151330638991657 0.0841996920757775 0
0.6500000000027435 0.4133974596212485 0
0.8500000000037264 0.4133974596216071 0
0.08137757808988279 0.2451660472533145 0
1.918622421910018 0.2548339527470077 0
0.1569425461335286 0.09595102731178878 0
1.843057453865768 0.4040489726881391 0
0.9500000000041982 0.413397459621993 0
1.000000000004133 0.3267949192439475 0
1.098669361010975 0.3275631640247185 0
1.050000000004085 0.2401923788659207 0
1.1498415905987 0.2461217063013363 0
0.9500000000044011 0.2401923788657142 0
1.050080821122502 0.08526519279759404 0
1.649999999999142 0.08660254037863825 0
1.599999999999031 0.1732050807571323 0
1.499999999998988 0.1732050807571772 0
1.549999999999045 0.2598076211356043 0
1.449999999999168 0.2598076211356792 0
1.649999999998923 0.2598076211355337 0
1.399999999998774 0.1732050807571851 0
1.349999999999317 0.2598076211358348 0
1.251552412156492 0.0854338208807844 0
1.301589374351162 0.1722420493936554 0
1.250170352970368 0.2545609771356147 0
1.699999999999055 0.1732050807572181 0
1.757607670564348 0.2592765969085883 0
1.803118576440452 0.1649420306336067 0
1.849832629271016 0.08486881051234907 0
0.7500000000031537 0.4133974596213206 0
0.7000000000029366 0.3267949192425782 0
0.6000000000026895 0.3267949192425441 0
0.6500000000028161 0.2401923788639159 0
0.7500000000029428 0.2401923788639477 0
0.5500000000026888 0.2401923788638834 0
0.5000000000023332 0.3267949192425418 0
0.4500000000025794 0.2401923788637919 0
0.8000000000033902 0.3267949192428439 0
0.8500000000030644 0.2401923788638283 0
1.744505661383797 0.4161935185894302 0
0.3500000000014948 0.4133974596212475 0
0.3000000000013101 0.3267949192425505 0
0.1981493686539315 0.3349694653285787 0
0.2421279535285662 0.2418911953892486 0
0.3486879922554401 0.2437447219965055 0
0.1502223801477935 0.4151273497665996 0
0.3997813320441892 0.3273869764313116 0
1.449999999998679 0.08660254037859588 0
0.5500000000023867 0.4133974596212612 0
0.8499999999978273 0.08660254037819064 0
0.2554943386150292 0.0838064814104011 0
0.6499999999983871 0.08660254037819119 0
0.4499999999989701 0.08660254037819125 0
1.349919178877302 0.4147348072031766 0
1.550000000000346 0.4133974596221586 0
1.148225814679624 0.4146942199167133 0
0.9000000000038189 0.3267949192433223 0
1.920479477070907 0.3476033243917002 0
0.07952052292882963 0.1523966756084271 0
0.09401132793444458 0.3418565952545347 0
1.906177665567397 0.1581302127799918 0
1.843103108326406 0.3063227667322382 0
0.1568528290219782 0.1938718653174215 0
1.197192295093351 0.332227791275126 0
1.202814948876648 0.1679268064746378 0
1.599999999999626 0.3366025403789321 0
1.69601497439769 0.3380649792470154 0
1.500000000000101 0.3366025403790097 0
1.400000000001384 0.3366025403795271 0
1.299325197991918 0.3356223408424418 0
0.3037222949927261 0.1627217099911105 0
0.3999999999991158 0.1633974596203975 0
1.100677999931813 0.1645172060224974 0
1.000126470177584 0.1633611927590206 0
0.499999999999287 0.1633974596201377 0
0.59999999999929 0.1633974596202031 0
0.7000000000007405 0.163397459621194 0
0.8000000000029118 0.1633974596227146 0
0.9000210783638855 0.1633914151446115 0
0.07320508075738583 0.4267949192427256 0
1.926794919242701 0.07320508075716919 0
1.926794919242805 0.4267949192428463 0
0.07320508075664378 0.07320508075680902 0
1.774726529867692 0.3435466525879841 0
0.2252437341270982 0.1565652337914637 0
1.844875112107596 0.2290616148105432 0
0.1545038114457606 0.2715510337086195 0
$EndNodes
$Elements
9 302 1 302
0 1 15 1
1 1 
0 2 15 1
2 2 
0 3 15 1
3 3 
0 4 15 1
4 4 
1 1 1 20
5 1 5 
6 5 6 
7 6 7 
8 7 8 
9 8 9 
10 9 10 
11 10 11 
12 11 12 
13 12 13 
14 13 14 
15 14 15 
16 15 16 
17 16 17 
18 17 18 
19 18 19 
20 19 20 
21 20 21 
22 21 22 
23 22 23 
24 23 2 
1 2 1 5
25 2 24 
26 24 25 
27 25 26 
28 26 27 
29 27 3 
1 3 1 20
30 3 28 
31 28 29 
32 29 30 
33 30 31 
34 31 32 
35 32 33 
36 33 34 
37 34 35 
38 35 36 
39 36 37 
40 37 38 
41 38 39 
42 39 40 
43 40 41 
44 41 42 
45 42 43 
46 43 44 
47 44 45 
48 45 46 
49 46 4 
1 4 1 5
50 4 47 
51 47 48 
52 48 49 
53 49 50 
54 50 1 
2 1 2 248
55 106 109 123 
56 91 92 124 
57 122 69 126 
58 121 70 125 
59 106 123 150 
60 91 124 149 
61 126 69 148 
62 125 70 147 
63 53 127 133 
64 64 128 136 
65 102 76 120 
66 101 102 120 
67 84 85 87 
68 108 100 110 
69 61 84 87 
70 87 85 88 
71 100 99 110 
72 99 63 110 
73 84 61 111 
74 29 30 103 
75 22 23 92 
76 58 14 77 
77 66 101 120 
78 30 51 103 
79 14 15 77 
80 63 99 112 
81 38 66 71 
82 101 97 102 
83 28 29 70 
84 94 97 101 
85 83 79 89 
86 86 61 87 
87 60 78 79 
88 79 78 89 
89 59 22 92 
90 61 18 111 
91 93 94 101 
92 66 93 101 
93 45 46 109 
94 105 108 110 
95 60 20 78 
96 17 61 86 
97 70 29 103 
98 60 80 111 
99 104 62 105 
100 104 105 110 
101 42 63 112 
102 80 84 111 
103 83 89 90 
104 80 79 81 
105 66 39 93 
106 60 79 80 
107 44 62 104 
108 105 106 107 
109 15 64 77 
110 80 81 82 
111 105 62 106 
112 78 59 89 
113 93 65 94 
114 94 95 96 
115 94 96 97 
116 81 79 83 
117 91 59 92 
118 95 65 112 
119 71 66 120 
120 21 59 78 
121 89 59 91 
122 99 95 112 
123 63 104 110 
124 64 16 86 
125 105 107 108 
126 96 95 98 
127 38 39 66 
128 40 65 93 
129 94 65 95 
130 15 16 64 
131 17 18 61 
132 21 22 59 
133 19 20 60 
134 63 43 104 
135 40 41 65 
136 44 45 62 
137 42 43 63 
138 62 45 109 
139 20 21 78 
140 16 17 86 
141 39 40 93 
142 84 82 85 
143 43 44 104 
144 19 60 111 
145 25 26 68 
146 13 14 58 
147 98 99 100 
148 37 38 71 
149 18 19 111 
150 48 49 67 
151 65 41 112 
152 41 42 112 
153 54 72 73 
154 106 62 109 
155 5 6 69 
156 13 58 113 
157 98 95 99 
158 80 82 84 
159 12 13 113 
160 6 7 114 
161 90 89 91 
162 74 72 76 
163 69 6 114 
164 11 12 57 
165 7 8 55 
166 9 10 56 
167 8 9 116 
168 10 11 115 
169 57 12 113 
170 36 37 54 
171 30 31 51 
172 32 33 52 
173 34 35 53 
174 33 34 117 
175 31 32 118 
176 35 36 119 
177 7 55 114 
178 73 74 75 
179 56 10 115 
180 73 72 74 
181 11 57 115 
182 55 8 116 
183 9 56 116 
184 36 54 119 
185 51 31 118 
186 52 33 117 
187 34 53 117 
188 32 52 118 
189 76 72 120 
190 53 35 119 
191 54 73 119 
192 54 71 72 
193 72 71 120 
194 54 37 71 
195 49 50 122 
196 26 27 121 
197 47 48 123 
198 24 25 124 
199 88 75 128 
200 75 88 127 
201 127 88 133 
202 128 75 136 
203 87 88 128 
204 64 86 128 
205 73 75 127 
206 53 119 127 
207 68 26 121 
208 67 49 122 
209 48 67 123 
210 25 68 124 
211 4 47 143 
212 46 4 143 
213 2 24 144 
214 23 2 144 
215 3 28 145 
216 27 3 145 
217 50 1 146 
218 1 5 146 
219 86 87 128 
220 119 73 127 
221 70 103 147 
222 69 114 148 
223 136 74 137 
224 77 136 137 
225 140 57 141 
226 141 113 142 
227 97 140 141 
228 74 76 137 
229 113 58 142 
230 77 64 136 
231 100 108 135 
232 57 113 141 
233 97 96 140 
234 88 85 133 
235 96 98 139 
236 85 82 132 
237 98 100 138 
238 82 81 131 
239 96 139 140 
240 81 83 129 
241 98 138 139 
242 85 132 133 
243 82 131 132 
244 103 51 130 
245 108 107 134 
246 83 90 130 
247 81 129 131 
248 100 135 138 
249 102 141 142 
250 108 134 135 
251 51 118 129 
252 129 118 131 
253 129 83 130 
254 118 52 131 
255 51 129 130 
256 131 52 132 
257 52 117 132 
258 76 102 142 
259 132 117 133 
260 117 53 133 
261 114 55 134 
262 55 116 135 
263 134 55 135 
264 58 77 137 
265 135 116 138 
266 75 74 136 
267 116 56 138 
268 102 97 141 
269 56 115 139 
270 138 56 139 
271 115 57 140 
272 139 115 140 
273 137 76 142 
274 58 137 142 
275 68 121 125 
276 67 122 126 
277 107 106 150 
278 90 91 149 
279 124 68 149 
280 123 67 150 
281 126 107 150 
282 125 90 149 
283 122 50 146 
284 121 27 145 
285 24 124 144 
286 47 123 143 
287 92 23 144 
288 109 46 143 
289 28 70 145 
290 5 69 146 
291 69 122 146 
292 70 121 145 
293 124 92 144 
294 123 109 143 
295 107 126 148 
296 90 125 147 
297 130 90 147 
298 134 107 148 
299 68 125 149 
300 67 126 150 
301 103 130 147 
302 114 134 148 
$EndElements
