$MeshFormat
4.1 0 8
$EndMeshFormat
$PhysicalNames
3
1 101 "外边_固定"
1 102 "内孔_固定"
2 200 "domain"
$EndPhysicalNames
$Entities
34 32 1 0
1 2 0 0 0 
2 1.847759065022573 0.7653668647301796 0 0 
3 1.414213562373095 1.414213562373095 0 0 
4 0.7653668647301797 1.847759065022573 0 0 
5 1.224646799147353e-16 2 0 0 
6 -0.7653668647301795 1.847759065022573 0 0 
7 -1.414213562373095 1.414213562373095 0 0 
8 -1.847759065022573 0.7653668647301798 0 0 
9 -2 2.449293598294706e-16 0 0 
10 -1.847759065022574 -0.7653668647301793 0 0 
11 -1.414213562373095 -1.414213562373095 0 0 
12 -0.7653668647301807 -1.847759065022573 0 0 
13 -3.673940397442059e-16 -2 0 0 
14 0.76536686473018 -1.847759065022573 0 0 
15 1.414213562373095 -1.414213562373095 0 0 
16 1.847759065022573 -0.7653668647301808 0 0 
17 0 0 0 0 
34 0.3 0 0 0 
35 0.277163859753386 0.1148050297095269 0 0 
36 0.2121320343559643 0.2121320343559643 0 0 
37 0.1148050297095269 0.277163859753386 0 0 
38 1.83697019872103e-17 0.3 0 0 
39 -0.1148050297095269 0.277163859753386 0 0 
40 -0.2121320343559642 0.2121320343559643 0 0 
41 -0.277163859753386 0.114805029709527 0 0 
42 -0.3 3.673940397442059e-17 0 0 
43 -0.277163859753386 -0.1148050297095269 0 0 
44 -0.2121320343559643 -0.2121320343559642 0 0 
45 -0.1148050297095271 -0.2771638597533859 0 0 
46 -5.510910596163089e-17 -0.3 0 0 
47 0.114805029709527 -0.277163859753386 0 0 
48 0.2121320343559642 -0.2121320343559643 0 0 
49 0.2771638597533859 -0.1148050297095271 0 0 
50 0 0 0 0 
1 1.847759065022573 0 0 2 0.7653668647301796 0 1 101 2 1 -2 
2 1.414213562373095 0.7653668647301796 0 1.847759065022573 1.414213562373095 0 1 101 2 2 -3 
3 0.7653668647301797 1.414213562373095 0 1.414213562373095 1.847759065022574 0 1 101 2 3 -4 
4 1.110223024625157e-16 1.847759065022573 0 0.7653668647301797 2 0 1 101 2 4 -5 
5 -0.7653668647301795 1.847759065022573 0 1.110223024625157e-16 2 0 1 101 2 5 -6 
6 -1.414213562373095 1.414213562373095 0 -0.765366864730179 1.847759065022574 0 1 101 2 6 -7 
7 -1.847759065022573 0.7653668647301797 0 -1.414213562373095 1.414213562373095 0 1 101 2 7 -8 
8 -2 1.110223024625157e-16 0 -1.847759065022573 0.7653668647301798 0 1 101 2 8 -9 
9 -2 -0.7653668647301793 0 -1.847759065022573 2.220446049250313e-16 0 1 101 2 9 -10 
10 -1.847759065022574 -1.414213562373095 0 -1.414213562373095 -0.7653668647301793 0 1 101 2 10 -11 
11 -1.414213562373095 -1.847759065022573 0 -0.7653668647301807 -1.414213562373095 0 1 101 2 11 -12 
12 -0.7653668647301807 -2 0 -3.33066907387547e-16 -1.847759065022573 0 1 101 2 12 -13 
13 -3.885780586188048e-16 -2 0 0.7653668647301801 -1.847759065022573 0 1 101 2 13 -14 
14 0.7653668647301805 -1.847759065022574 0 1.414213562373095 -1.414213562373096 0 1 101 2 14 -15 
15 1.414213562373095 -1.414213562373095 0 1.847759065022573 -0.7653668647301807 0 1 101 2 15 -16 
16 1.847759065022573 -0.7653668647301808 0 2 0 0 1 101 2 16 -1 
33 0.277163859753386 0 0 0.3 0.1148050297095269 0 1 102 2 34 -35 
34 0.2121320343559643 0.114805029709527 0 0.2771638597533861 0.2121320343559643 0 1 102 2 35 -36 
35 0.114805029709527 0.2121320343559643 0 0.2121320343559643 0.2771638597533861 0 1 102 2 36 -37 
36 1.387778780781446e-17 0.2771638597533861 0 0.114805029709527 0.3000000000000001 0 1 102 2 37 -38 
37 -0.1148050297095269 0.277163859753386 0 2.081668171172169e-17 0.3 0 1 102 2 38 -39 
38 -0.2121320343559643 0.2121320343559643 0 -0.114805029709527 0.2771638597533861 0 1 102 2 39 -40 
39 -0.277163859753386 0.114805029709527 0 -0.2121320343559642 0.2121320343559643 0 1 102 2 40 -41 
40 -0.3 2.775557561562891e-17 0 -0.277163859753386 0.1148050297095269 0 1 102 2 41 -42 
41 -0.3 -0.1148050297095269 0 -0.277163859753386 3.469446951953614e-17 0 1 102 2 42 -43 
42 -0.277163859753386 -0.2121320343559642 0 -0.2121320343559643 -0.1148050297095269 0 1 102 2 43 -44 
43 -0.2121320343559643 -0.277163859753386 0 -0.1148050297095271 -0.2121320343559643 0 1 102 2 44 -45 
44 -0.1148050297095271 -0.2999999999999999 0 2.775557561562891e-17 -0.2771638597533859 0 1 102 2 45 -46 
45 -5.551115123125783e-17 -0.3 0 0.114805029709527 -0.277163859753386 0 1 102 2 46 -47 
46 0.114805029709527 -0.277163859753386 0 0.2121320343559642 -0.2121320343559643 0 1 102 2 47 -48 
47 0.2121320343559642 -0.2121320343559643 0 0.277163859753386 -0.1148050297095271 0 1 102 2 48 -49 
48 0.2771638597533859 -0.1148050297095271 0 0.2999999999999999 5.551115123125783e-17 0 1 102 2 49 -34 
1 -2 -2 0 2 2 0 1 200 32 1 2 3 4 5 6 7 8 9 10 11 12 13 14 15 16 -48 -47 -46 -45 -44 -43 -42 -41 -40 -39 -38 -37 -36 -35 -34 -33 
$EndEntities
$Nodes
67 587 1 587
0 1 0 1
1
2 0 0
0 2 0 1
2
1.847759065022573 0.7653668647301796 0
0 3 0 1
3
1.414213562373095 1.414213562373095 0
0 4 0 1
4
0.7653668647301797 1.847759065022573 0
0 5 0 1
5
1.224646799147353e-16 2 0
0 6 0 1
6
-0.7653668647301795 1.847759065022573 0
0 7 0 1
7
-1.414213562373095 1.414213562373095 0
0 8 0 1
8
-1.847759065022573 0.7653668647301798 0
0 9 0 1
9
-2 2.449293598294706e-16 0
0 10 0 1
10
-1.847759065022574 -0.7653668647301793 0
0 11 0 1
11
-1.414213562373095 -1.414213562373095 0
0 12 0 1
12
-0.7653668647301807 -1.847759065022573 0
0 13 0 1
13
-3.673940397442059e-16 -2 0
0 14 0 1
14
0.76536686473018 -1.847759065022573 0
0 15 0 1
15
1.414213562373095 -1.414213562373095 0
0 16 0 1
16
1.847759065022573 -0.7653668647301808 0
0 17 0 1
17
0 0 0
0 34 0 1
18
0.3 0 0
0 35 0 1
19
0.277163859753386 0.1148050297095269 0
0 36 0 1
20
0.2121320343559643 0.2121320343559643 0
0 37 0 1
21
0.1148050297095269 0.277163859753386 0
0 38 0 1
22
1.83697019872103e-17 0.3 0
0 39 0 1
23
-0.1148050297095269 0.277163859753386 0
0 40 0 1
24
-0.2121320343559642 0.2121320343559643 0
0 41 0 1
25
-0.277163859753386 0.114805029709527 0
0 42 0 1
26
-0.3 3.673940397442059e-17 0
0 43 0 1
27
-0.277163859753386 -0.1148050297095269 0
0 44 0 1
28
-0.2121320343559643 -0.2121320343559642 0
0 45 0 1
29
-0.1148050297095271 -0.2771638597533859 0
0 46 0 1
30
-5.510910596163089e-17 -0.3 0
0 47 0 1
31
0.114805029709527 -0.277163859753386 0
0 48 0 1
32
0.2121320343559642 -0.2121320343559643 0
0 49 0 1
33
0.2771638597533859 -0.1148050297095271 0
0 50 0 1
34
0 0 0
1 1 0 3
35
36
37
1.990369453291435 0.196034281196817 0
1.96157056060275 0.3901806450563803 0
1.913880671283982 0.5805693551037399 0
1 2 0 3
38
39
40
1.763842528572727 0.9427934738839506 0
1.662939223851402 1.111140467167179 0
1.546020906288756 1.268786568859433 0
1 3 0 3
41
42
43
1.268786567779985 1.546020907174637 0
1.111140465064942 1.662939225256072 0
0.9427934729481627 1.763842529072917 0
1 4 0 3
44
45
46
0.5805693539410138 1.913880671636691 0
0.3901806429482799 1.961570561022077 0
0.1960342799829402 1.990369453410992 0
1 5 0 3
47
48
49
-0.1960342811968169 1.990369453291435 0
-0.3901806450563802 1.96157056060275 0
-0.5805693551037397 1.913880671283982 0
1 6 0 3
50
51
52
-0.9427934742485362 1.763842528377852 0
-1.111140467158412 1.66293922385726 0
-1.268786568758713 1.546020906371415 0
1 7 0 3
53
54
55
-1.546020907278176 1.268786567653822 0
-1.662939225408101 1.111140464837415 0
-1.763842529028082 0.9427934730320429 0
1 8 0 3
56
57
58
-1.913880671599755 0.5805693540627772 0
-1.961570561022954 0.3901806429438711 0
-1.990369453412575 0.1960342799668638 0
1 9 0 3
59
60
61
-1.990369453285906 -0.196034281252952 0
-1.96157056058219 -0.3901806451597399 0
-1.913880671276037 -0.5805693551299315 0
1 10 0 3
62
63
64
-1.763842528476928 -0.9427934740631779 0
-1.662939223965626 -1.111140466996231 0
-1.546020906249115 -1.268786568907736 0
1 11 0 3
65
66
67
-1.268786568058518 -1.546020906946051 0
-1.111140465267512 -1.662939225120719 0
-0.9427934732606386 -1.763842528905895 0
1 12 0 3
68
69
70
-0.580569354058274 -1.913880671601121 0
-0.3901806428563401 -1.961570561040365 0
-0.1960342799902843 -1.990369453410268 0
1 13 0 3
71
72
73
0.1960342811361597 -1.990369453297409 0
0.3901806450179093 -1.961570560610402 0
0.5805693551098219 -1.913880671282137 0
1 14 0 3
74
75
76
0.942793474324899 -1.763842528337036 0
1.11114046711241 -1.662939223887999 0
1.268786568640991 -1.546020906468028 0
1 15 0 3
77
78
79
1.546020907014238 -1.268786567975431 0
1.662939225099059 -1.111140465299928 0
1.763842528826677 -0.9427934734088447 0
1 16 0 3
80
81
82
1.913880671675112 -0.5805693538143593 0
1.961570561081874 -0.3901806426476609 0
1.990369453425782 -0.1960342798327727 0
1 33 0 0
1 34 0 0
1 35 0 0
1 36 0 0
1 37 0 0
1 38 0 0
1 39 0 0
1 40 0 0
1 41 0 0
1 42 0 0
1 43 0 0
1 44 0 0
1 45 0 0
1 46 0 0
1 47 0 0
1 48 0 0
2 1 0 505
83
84
85
86
87
88
89
90
91
92
93
94
95
96
97
98
99
100
101
102
103
104
105
106
107
108
109
110
111
112
113
114
115
116
117
118
119
120
121
122
123
124
125
126
127
128
129
130
131
132
133
134
135
136
137
138
139
140
141
142
143
144
145
146
147
148
149
150
151
152
153
154
155
156
157
158
159
160
161
162
163
164
165
166
167
168
169
170
171
172
173
174
175
176
177
178
179
180
181
182
183
184
185
186
187
188
189
190
191
192
193
194
195
196
197
198
199
200
201
202
203
204
205
206
207
208
209
210
211
212
213
214
215
216
217
218
219
220
221
222
223
224
225
226
227
228
229
230
231
232
233
234
235
236
237
238
239
240
241
242
243
244
245
246
247
248
249
250
251
252
253
254
255
256
257
258
259
260
261
262
263
264
265
266
267
268
269
270
271
272
273
274
275
276
277
278
279
280
281
282
283
284
285
286
287
288
289
290
291
292
293
294
295
296
297
298
299
300
301
302
303
304
305
306
307
308
309
310
311
312
313
314
315
316
317
318
319
320
321
322
323
324
325
326
327
328
329
330
331
332
333
334
335
336
337
338
339
340
341
342
343
344
345
346
347
348
349
350
351
352
353
354
355
356
357
358
359
360
361
362
363
364
365
366
367
368
369
370
371
372
373
374
375
376
377
378
379
380
381
382
383
384
385
386
387
388
389
390
391
392
393
394
395
396
397
398
399
400
401
402
403
404
405
406
407
408
409
410
411
412
413
414
415
416
417
418
419
420
421
422
423
424
425
426
427
428
429
430
431
432
433
434
435
436
437
438
439
440
441
442
443
444
445
446
447
448
449
450
451
452
453
454
455
456
457
458
459
460
461
462
463
464
465
466
467
468
469
470
471
472
473
474
475
476
477
478
479
480
481
482
483
484
485
486
487
488
489
490
491
492
493
494
495
496
497
498
499
500
501
502
503
504
505
506
507
508
509
510
511
512
513
514
515
516
517
518
519
520
521
522
523
524
525
526
527
528
529
530
531
532
533
534
535
536
537
538
539
540
541
542
543
544
545
546
547
548
549
550
551
552
553
554
555
556
557
558
559
560
561
562
563
564
565
566
567
568
569
570
571
572
573
574
575
576
577
578
579
580
581
582
583
584
585
586
587
0.2197877448813868 -0.3289356055527358 0
-0.2163628608856139 0.3336852356991258 0
0.3301289704945767 0.2181992847944353 0
0.3879920911434888 -0.09115078207216235 0
-0.07986104783770734 -0.3931046530701298 0
-0.3822633106287955 -0.08182396158299865 0
0.05966912330133224 0.3883783444417919 0
-1.354173763574111 -1.227351557438431 0
-1.665839700201938 0.7947117892385624 0
1.567598105334497 -0.9395821450004924 0
0.9333811760964495 1.557113417885333 0
-0.4236688960477544 1.760566565841581 0
1.779398791179203 0.4653843777754097 0
0.4355818599672767 -1.763218398243431 0
-1.794905954969323 0.08115671550571851 0
-0.7879725385615846 -1.685630778183672 0
-1.239133195366644 1.368240505650663 0
-1.744917582634428 -0.5890089302748507 0
1.088709284823273 -1.467954536446682 0
1.814618129464853 -0.2816896365002481 0
1.473202097503274 1.098971956090699 0
0.2618031114785189 1.806249786727321 0
-0.2746421858054333 -1.824748832210692 0
1.363372274788775 -1.232932343593953 0
1.231056163265003 1.353345661676323 0
1.795951641871618 0.08000744652770707 0
-0.08769216122918999 1.818350660977769 0
-1.816867919134545 -0.2591734353128627 0
-0.9395821459869338 1.567598104147597 0
-1.756208339548396 0.4517026495768582 0
-1.088709283290275 -1.467954536659478 0
1.730557485134427 -0.6242486792609747 0
0.7814063172609617 -1.652144846099223 0
0.6172965222050086 1.752595141039407 0
1.657716749308502 0.7944084834921878 0
-1.564272314681856 -0.9481083318577627 0
-1.477615402742007 1.101612000924885 0
0.1017899060134094 -1.817411308121831 0
0.1186327467604063 -0.3899875162126266 0
0.2305244275826778 -0.4502967131620753 0
0.1272754310191339 -0.5205460913791558 0
0.2417772140183631 -0.5778352672539687 0
0.1333374699143668 -0.652225025383373 0
0.352767157536501 -0.4994703923604328 0
0.3656057253240153 -0.630922210601241 0
0.4736130337000565 -0.5595948179016226 0
0.4903296709733138 -0.6929003213526458 0
0.6056401421379889 -0.6155096483863006 0
0.6167479669767953 -0.7620511187508315 0
0.4846856209789969 -0.851590584585399 0
0.737302995366192 -0.6748591568993692 0
0.725851841030016 -0.5277963345071552 0
0.8603019534089379 -0.587525030581301 0
0.8468694241760569 -0.4369017777859401 0
0.9981600042768655 -0.5023176004951229 0
0.9711699318153432 -0.3482177650631408 0
0.7664611844121402 -0.8148374752383549 0
0.9955200037711214 -0.6575137493056947 0
1.130181428294546 -0.4077176298664053 0
1.100667111424541 -0.2522162104631319 0
0.9550728109110805 -0.1889060497189239 0
1.080328250304574 -0.09644828248523341 0
0.9378669710002743 -0.03489807907594356 0
1.062420712585646 0.05813155728008412 0
0.9207769070043419 0.1191405918814319 0
1.044784823276773 0.2119262252459007 0
0.902033174489478 0.2745746085263107 0
1.026845891060755 0.3658011170482671 0
0.884675107019413 0.4275474769230872 0
1.01028368820574 0.5213191177269626 0
0.8635673768686162 0.585353332277095 0
0.9932037539052603 0.6800295875855348 0
0.8454986279515178 0.7432365055935395 0
0.7170963582961171 0.6486878725261459 0
0.6984162585844379 0.8040543274959864 0
0.5743512284315092 0.7095925522414775 0
0.5542927097565453 0.8636317830480352 0
0.4321778764338071 0.7704181966200667 0
0.4119136927906194 0.9223573245853356 0
0.288704060568195 0.8278173205494315 0
0.2701673195208293 0.9814624826760325 0
0.1466452436722089 0.8865576915021911 0
0.1284463247859671 1.0421401621186 0
0.00316426653351295 0.9476367835836187 0
-0.01489172461832325 1.103899703089403 0
-0.1423526227706788 1.007535568034432 0
0.5298292316370182 1.021137907487546 0
0.2589714499096467 1.135699875883464 0
-0.1607792829742347 1.166615895742015 0
-0.2878839405052957 1.069147270133687 0
-0.2685918671529012 0.9115206924836948 0
-0.4124387236178931 0.9712437045516872 0
-0.3940663669246407 0.8197514262803597 0
-0.5353397115494094 0.8758698305848867 0
-0.5183930616272154 0.7253157438220965 0
-0.6566716194228615 0.7801742719332221 0
-0.6383884577899771 0.6276013764779012 0
-0.7787373254891753 0.6844137547163236 0
-0.7587240941507397 0.5296079511650436 0
-0.8978710426929175 0.5883123610222838 0
-0.880761105211805 0.4322222096795536 0
-1.014034901451464 0.4970150965778394 0
-1.002845851240002 0.3372717428580894 0
-0.8595998621816309 0.2748635212931516 0
-0.9819500841370943 0.1791883967175809 0
-1.142465389609812 0.2394899433185476 0
-1.114570508829609 0.08070358025267228 0
-0.9597196153349629 0.02341387821311174 0
-1.08178557650176 -0.0748391862414706 0
-0.9337084038258748 -0.1311374191402194 0
-1.055001743705078 -0.2297693475209983 0
-0.9076987833553171 -0.285994103183096 0
-1.027996625605248 -0.3812722647631951 0
-0.8811024841884911 -0.4405527922461236 0
-1.009674179808746 -0.5259167414345063 0
-0.8548428225642029 -0.5918144811629381 0
-0.7425255316894348 -0.4789930088075849 0
-0.686785563319968 -0.6301023718460966 0
-0.8287840932469963 -0.741180142148133 0
-0.6730631569411166 -0.8010526666167782 0
-0.540489082662708 -0.7121519447997433 0
-0.5226785803998524 -0.8637858204746325 0
-0.671901168804801 0.9448283694250096 0
-0.4364174118809278 1.129510669436835 0
-0.9371524040168615 0.7577137183246464 0
-0.6480785435918932 -0.9629898863297914 0
-0.4922370240689156 -1.017902924597292 0
-0.3723869895288904 -0.9127366781994727 0
-0.3361567567935245 -1.068249995818584 0
1.187222353350207 0.1468717866728944 0
-1.172689668951036 -0.3266675559565418 0
-1.256284477296134 -0.03729990113579193 0
1.157000902995914 0.455158801300433 0
0.8252119011760685 0.9035653134618379 0
1.225061622480066 -0.1446067974142971 0
-0.03178757743986757 1.264513049152688 0
-0.2493034683158664 0.7681961774215745 0
-0.4592051401542681 -1.178721293200013 0
-0.3012475757198478 -1.228175285402335 0
-0.1788281654288708 -1.116603172641266 0
-0.1427472924358464 -1.277916967647528 0
-0.0201747967726847 -1.164883690367191 0
0.7798079909889456 0.1797421000255705 0
-0.6156447605470325 0.475176578172041 0
0.7148773943549771 -0.3845523492906193 0
0.0165929465326211 -1.327400296538449 0
0.1401206291601169 -1.213397358743269 0
0.6085215256642678 0.5549914308429362 0
-0.820059303751925 -0.03426796524245794 0
-0.1829757961653059 1.330117148589639 0
-0.4246955340808358 -1.343093870013072 0
-0.587246578422746 -1.290800860522583 0
0.3152634383032282 0.6839344298500742 0
0.1769936637358737 -1.376749193508785 0
0.3000564903823013 -1.261759151256028 0
-0.06096890232380142 -1.018598767169595 0
-0.048926271105053 1.430677024223705 0
0.8219806502048488 -0.1451091509325305 0
0.02610456165414451 0.7969838518551134 0
0.02293958224777842 -0.5916826032596233 0
0.2627962036344123 -1.100150760894601 0
0.4225592168605219 -1.146509847027485 0
0.4615538979890653 -1.310463186232042 0
0.5849565832595581 -1.192380944305952 0
-0.1071303789226471 -1.442336801666588 0
0.475549237410213 -0.4034986717138581 0
-0.3196864326646585 0.2416783467560326 0
-0.352671456128163 0.35303978973053 0
-0.4572884323036325 0.2768470406084771 0
-0.2677142544988913 0.4461385052130833 0
0.3883430910749814 0.1183814839224997 0
0.4459613644127424 0.2272824295617944 0
0.3801637503384694 0.3221919555959822 0
0.5092043702721438 0.1148891073818822 0
-0.1943469303639235 -0.3614157337720435 0
-0.3068676986190182 -0.3012874142107266 0
-0.297788733937506 -0.428691653740963 0
-0.4174940775509005 -0.3668646166132225 0
-0.2060044982219653 1.499096887551671 0
0.02677459523384328 -0.7351027556073089 0
-0.08617981649848468 -0.6640788002578446 0
0.1435822261060234 -0.7889560975037598 0
-0.3429049564980843 1.392904907965802 0
-0.07717919243271534 0.3880060020873705 0
9.819634965710866e-18 0.4943107727110581 0
-0.3931833786773157 0.05162066394832701 0
-0.4970737742702252 -0.004792883186306937 0
-0.5064940348029765 -0.134324338707567 0
0.3326813033156564 -0.2242878093440384 0
0.4564204713607751 -0.1890555493823541 0
0.1090166947776403 1.364642793504682 0
0.1286445369396559 0.4947581859674701 0
0.6253959019995068 -1.358377753210103 0
0.7495102332717951 -1.238656734572676 0
0.5147030400410936 -0.08139879637240999 0
0.08985803293894841 1.533966229751761 0
0.2619142955458567 1.45841305601669 0
0.5870147983748576 -0.1811676677218334 0
-0.5507821602812578 -1.455756269522615 0
-0.3871221153547739 -1.507730975205658 0
-0.3940576493174494 0.4698207099337316 0
-0.4154071611978354 -0.4989993073486834 0
0.5177608590332469 0.3323920025386826 0
-0.2964315753567492 -0.5514092889679552 0
0.4953209195424217 -1.4701575171468 0
-0.7283044463262303 -1.400733901689076 0
-0.7541056815943236 -1.231732198804906 0
0.1876346034691107 0.3885405446149826 0
0.2671902572397564 0.4827190986597542 0
0.4006630577952689 0.4529518506673536 0
-0.5063063629515419 -1.618566623364145 0
0.7026137684915917 -1.074948277157418 0
0.8734889286739561 -1.119177965597482 0
-0.6120336435773621 -0.04782022168177348 0
-0.6009721352305957 0.0774202963067412 0
-0.6152442972690855 -0.1922721816379053 0
-0.5224524120917713 -0.4268882480311443 0
-0.094955552807671 -0.803622748949729 0
-0.1888710719346943 -0.716140050788177 0
0.7963906765469073 -1.415637698652277 0
-0.3096732427677472 0.571148365200225 0
-0.1867282060549292 0.534118370504622 0
0.6389825311325344 -0.04702582000740514 0
0.05363011785360465 0.6288078341168913 0
-0.177520159332417 -0.4768374103099071 0
-0.8941577634363279 -1.348762001033938 0
-0.9231122049293934 -1.174069658975669 0
-0.3676404304891198 1.567528337812051 0
-0.5074309768180583 1.458542093943677 0
0.3810399066255101 -0.9847437652743161 0
0.2192483779630176 -0.9266293744825673 0
0.4597225241211687 0.5997801974045012 0
-0.122796956466173 0.8534221773290597 0
-0.09496157533694564 0.7105503427617539 0
0.1734116567367641 0.7374495067854184 0
0.7341087497074809 0.4946499021099987 0
0.7604149904769136 0.3376706897626943 0
0.6498597516827848 0.2584945077812652 0
0.781809960569596 0.0007444108128888166 0
0.6383849734827515 0.1073252212470675 0
0.8350562602100431 -0.291945402036731 0
-0.8442673189928597 0.1195624224697867 0
-0.7020758825371605 0.1986030516642567 0
-0.7363911955403247 0.3691622789981269 0
-0.5996117583100815 0.3080642598258742 0
-0.4037554378242803 -0.203198378456019 0
-0.2318931103810017 1.677780195288918 0
0.1038822790052761 -1.051376517693092 0
0.3395422812137466 -0.3651826252183525 0
-0.2190996447220426 -0.9734282236645759 0
-0.7754729891153891 -0.3322182695028265 0
-0.7987129234228554 -0.1891852485727498 0
-0.4175700143834605 -0.6300007781204986 0
-0.5159624485323475 -0.2781787092605353 0
0.5339249714417882 -1.0264360649191 0
-0.4812507524967939 0.5641079793862139 0
0.541972996580471 -0.2783865365831826 0
-0.7816591908861161 -1.06728440270785 0
-0.94928475250845 -1.005035130287258 0
-1.085420094448553 -1.111486109096678 0
-1.119515168365117 -0.9406631551793465 0
-1.278488523061918 -1.060755400267237 0
-1.287594592111035 -0.8747433321709854 0
-1.143644320586976 -0.7702109312361565 0
-1.314057447791336 -0.70439369409386 0
-1.175096054544394 -0.5887684072375157 0
-1.35217954073154 -0.5304717799271177 0
-1.472108469369623 -0.6409586218426722 0
-1.500379441841475 -0.4657740582129105 0
-1.389291776505162 -0.3597501255526583 0
-1.532366424672574 -0.2918079115203265 0
-1.378805954966451 -0.1789879072105036 0
-1.553002638205442 -0.1161919713743325 0
-1.425074767601305 -0.007229459611258593 0
-1.317943402961965 0.1332583206838331 0
-1.296182645412001 0.3179369120230809 0
-1.457037921872631 0.2536465012933026 0
-1.437081677625263 0.4175538586048989 0
-1.282026471546015 0.4948658775661787 0
-1.41785297079969 0.5866100217877532 0
-1.261553157980631 0.6674409055855226 0
-1.3951920746659 0.7533444433557632 0
-1.238874032998722 0.8338592150568429 0
-1.596609942373512 0.04217475051562702 0
-1.580625606199947 0.5141473350387807 0
-0.9682932167225602 -0.8411053381671382 0
-1.110790149142826 0.7323098474167518 0
-1.077488048127337 0.8970042946000257 0
-1.212626082560662 1.005517167532409 0
-1.052330077043264 1.074506097647467 0
-0.9205736234285757 0.9464148792423029 0
-0.8790291263211363 1.117264932122009 0
-0.9947159319740706 1.233384627650405 0
-0.819338944442547 1.277561306450096 0
-0.7039839682296057 1.124831876816214 0
-0.6387658346737042 1.318498143052345 0
-0.7624905182102467 1.449267560768269 0
-1.670694746605541 -0.4066950368619044 0
0.600345659102706 -0.4758262123123999 0
0.9201313825533959 -1.275734797657308 0
1.040463365321348 -1.154281011411462 0
0.9969974375922602 -0.9939648365051998 0
1.162798708459827 -1.034380647696458 0
1.124196083584502 -0.8734010898306015 0
1.28080649225635 -0.9110444878874807 0
1.247104998253733 -0.7485756545426123 0
1.440959200918878 -0.8033610665265329 0
1.36933756717896 -0.6197383849286939 0
1.166274936176627 -0.5884739805736603 0
1.31487396056442 -0.4482066777845578 0
1.48150736896803 -0.4852931322542041 0
1.432462442093529 -0.3261837284984344 0
1.627978121627963 -0.3474153078700459 0
1.556524257407352 -0.1903338523415594 0
0.9526040718414507 -0.8238072545796646 0
1.548038998777484 -0.6433952862300613 0
0.976213233348966 0.8415969912141763 0
1.128123097961039 0.7755585577152317 0
0.9563710189767353 1.007025505719512 0
0.8000709967005579 1.069617507310152 0
0.933257392672631 1.175407877145876 0
0.7743543725818833 1.241540782101519 0
1.093023015271911 1.11264997438653 0
0.9201866686681968 1.350601155974511 0
0.7458900644637155 1.416141531246225 0
0.6099305934832508 1.306291477719475 0
0.5838745559221983 1.474731284590926 0
0.4403060796864703 1.37222876372493 0
0.4524720256062013 1.191443617210304 0
0.4022756279532654 1.538147554801732 0
0.7319242643008952 1.631755332642443 0
0.3433066722820707 -0.863188752382818 0
-0.6204220264530437 -1.124905261027072 0
-1.070688323207786 -1.27657594091422 0
1.117182047068036 0.9473873400021866 0
1.267968568944512 0.8745377188001028 0
1.285465687442404 0.7024978332974036 0
1.458283864442319 0.7968676607016358 0
1.446581552560763 0.62666754294358 0
-0.8894458837924049 -1.554001658828922 0
0.01940384736971272 -0.4629828274284066 0
0.2885109163484736 1.300888067397906 0
0.3370543127239656 -1.425962081201812 0
0.2155649149529922 -1.535404420820627 0
1.301172394306509 0.5350082294701862 0
1.458857503100209 0.453396109395193 0
1.309536314812663 0.3748374390442368 0
1.465912134225655 0.2906984042900512 0
1.603682585959019 0.5372012110846521 0
0.03184410020816359 -0.8907146975864838 0
-1.602463880887435 0.3495947145434831 0
-1.773870252839563 0.2696396106387311 0
1.082559723785496 1.452239491198408 0
-0.3078321030044595 1.228531067835931 0
-0.0684798862016842 1.599681293006784 0
0.08166108712565527 1.710143421582932 0
-0.2647527339204783 -1.392741035331929 0
-0.4782530949056058 1.292660439846568 0
0.2363453602527505 1.628317632643575 0
0.676216330235604 0.9660205956497913 0
1.203767270059168 0.001386980039381089 0
1.337592890012013 0.08817081880720345 0
0.05346587022081632 -1.489832855413502 0
-0.06674298424812583 -1.599256769175731 0
-1.200241753315262 -0.1741234254474473 0
1.625880626899834 0.3685463971416135 0
1.634707674801918 0.1994160605123727 0
1.171980531295546 0.2961595613620477 0
0.6494768835589967 1.134116735095191 0
-0.5542286789449216 1.038281238012963 0
0.1096892821614857 1.195569745801278 0
1.145874920802811 0.6115953545159587 0
-1.718983641082927 0.6289511252429721 0
0.2526436818675996 -0.700486439719025 0
-1.182965959498516 1.195652141191381 0
-1.393634575857959 0.9388974917957126 0
1.393503495259228 -0.1597197344354998 0
1.48423612129438 -0.0256315509274306 0
1.676966828238801 -0.06021040335487938 0
-1.719506999672262 -0.08274528612247531 0
-1.233912934828512 -1.356135157410177 0
-0.5005999400336372 0.4007563767178703 0
-1.364295397115698 1.242005533980007 0
-0.5304375351172731 -0.5693543326159975 0
-1.448012618330903 -0.8150315828603327 0
-1.619726598399285 -0.7560511721506028 0
0.6351273209258257 -1.533548772850096 0
0.9205881436412735 -1.53590852626119 0
0.617297815189203 -1.720071814025414 0
1.239286564205808 -1.367342014042988 0
1.359422493796445 1.235572534227954 0
1.276328963256797 1.064438828923403 0
1.569109970238836 0.9495210098316226 0
1.779437832553278 -0.4547679657120637 0
0.4580968720192845 1.786921584942928 0
0.8378192390500686 -0.9626943775150687 0
0.6353340995708169 -0.9102607932165603 0
1.48102453544016 -1.097389512486787 0
1.797979791441126 0.2832615347017167 0
1.649792564002422 -0.7864579191928478 0
0.277329380793096 -1.842790036924674 0
-1.482229213497919 -1.099296106549178 0
-1.581056796614053 0.9524762639860804 0
-1.096857623149083 1.481652807844131 0
-0.09054887691119097 -1.84316474372655 0
0.6353880558524849 0.4063253060041895 0
0.3751686043924178 -1.590623114555674 0
0.2111126865511967 0.6002016846078118 0
-1.144893107405071 0.4131404024612897 0
-0.6211767050896837 1.736231263959165 0
-0.7890048654874189 1.668210625951483 0
-0.8081938256495219 -0.9031079277094914 0
-0.5467239636370232 0.1910970534707538 0
0.3846707438928629 1.050420241568536 0
1.266125010019388 -0.289775129743721 0
-0.4522808407693619 -1.789326899005059 0
0.7003673497979512 -0.2479853194292314 0
-0.2255955604055996 -1.550216658913615 0
0.4436293800272328 0.01405033324377598 0
-0.6334815406106377 -0.3472880807643687 0
1.828422506669102 -0.1089061492769473 0
-0.3776786133080705 0.6818714955825025 0
1.078455308184455 1.274901054095376 0
-0.9503541102838244 1.392246926822974 0
-0.4048573223684242 -0.7735302537420405 0
0.09211670339281942 -1.642826239693315 0
-0.7926040327302034 0.853589622575492 0
1.320403399483816 -1.07034050537839 0
-0.2709329526454018 1.839293180892419 0
-0.6413029767227758 1.567120875474946 0
-0.9967224479123127 -0.6764993402310645 0
1.199856953061926 -1.193461916880365 0
-0.7221143894475591 0.05031657057261538 0
-0.3395161740723057 -1.664621265265867 0
1.473238729665365 0.1388976882051599 0
-0.6275898629125347 -1.733885446231042 0
1.728529210422482 0.6368715824154375 0
0.341610375718051 0.5660641608987413 0
0.5489808589911512 0.02156800909858211 0
1.075961349961421 -1.311392382886428 0
-1.136468117297414 0.579117539958097 0
-0.5077935399959516 1.631363526891263 0
0.8624380417599685 -0.7117085333208769 0
-0.07517714624894291 0.5892848623433073 0
-1.550160556566106 0.6839111797919493 0
1.40603488284219 0.9557464585222331 0
0.09178746332629785 1.868376744593937 0
-0.1870897403333523 -0.5931669588641524 0
-1.412119452336726 -0.9595869507410992 0
-1.129748223694194 -0.4492110789366152 0
-0.6792505921661658 -1.567158501705084 0
0.2537904732053076 0.3015440630684355 0
1.324247158893575 0.2226059497302655 0
-0.562329797726953 1.180756473432985 0
1.21064888544349 1.205162164190606 0
-1.662606466659443 -0.2271470932946512 0
-0.2268061161579893 0.6473239226264434 0
-0.4898749237973959 0.1008362787635537 0
-1.867455935391109 -0.09157836612082051 0
-0.7139111081278209 -0.1070873390007559 0
-1.821971732684231 -0.4563801617451744 0
-1.20690610846729 -1.204694440129789 0
-1.625139352793879 0.1996408679933557 0
-0.168280572554577 0.4413540903542004 0
-0.3076388427619037 -0.2055577029277182 0
1.422158578639183 -0.9635140376949534 0
-0.4164617462735747 0.1725041035160975 0
-0.7905880552189462 1.007992741811448 0
1.633503961412237 -0.5110240742654699 0
-0.07597917838585111 -0.5286083048168398 0
0.2561886215694718 -1.690223213691944 0
1.328832279820971 -0.04808005678612859 0
-0.2434289678024316 -0.8231362849443723 0
0.2978884284095826 0.3895895025213016 0
1.108746590896744 -0.7352481670925354 0
-0.168580579975926 -1.702613314928392 0
0.4292332579761724 -0.2920822384483572 0
-1.325928553301019 1.101760527553991 0
0.3638644078023329 1.677128989592354 0
-0.3020824793445864 -0.6752237269710373 0
0.5244112044932874 0.4692881574915326 0
-0.623136516565817 -0.4905252084130385 0
-1.260031160421725 -0.4225346833822656 0
1.610490655381259 0.05837039768820897 0
-1.01670627336154 0.6383843842228265 0
0.5286920851405134 1.633991708422037 0
0.3752648198502688 -0.7501990384136688 0
-1.089139497940066 1.34401715407735 0
-1.282905925595923 -0.2790189624914526 0
1.69262898701356 -0.1955100225014908 0
-1.517176740781191 0.8246682336336136 0
0.6065423059829853 -0.3640054520748436 0
-1.477067984177392 0.1173429637354396 0
0.5522342637767339 0.2080766537021383 0
-1.594174794942592 -0.5713757438278267 0
0.9673205498027757 -1.409580020879761 0
0.709070587406945 -0.1348303752026257 0
0.511699304003429 -1.615523923364283 0
-0.02639316634580278 -1.721054475129164 0
1.568737399781614 0.6782992023064564 0
-0.09917168787037642 0.4938169677905941 0
-0.704161035545834 -0.2528187936843189 0
-0.6374975766061962 1.448357168309809 0
-0.1146543217195427 -0.9107166216993368 0
0.2556166989085852 -0.8085536105255688 0
$EndNodes
$Elements
67 1204 1 1204
0 1 15 1
1 1 
0 2 15 1
2 2 
0 3 15 1
3 3 
0 4 15 1
4 4 
0 5 15 1
5 5 
0 6 15 1
6 6 
0 7 15 1
7 7 
0 8 15 1
8 8 
0 9 15 1
9 9 
0 10 15 1
10 10 
0 11 15 1
11 11 
0 12 15 1
12 12 
0 13 15 1
13 13 
0 14 15 1
14 14 
0 15 15 1
15 15 
0 16 15 1
16 16 
0 17 15 1
17 17 
0 34 15 1
18 18 
0 35 15 1
19 19 
0 36 15 1
20 20 
0 37 15 1
21 21 
0 38 15 1
22 22 
0 39 15 1
23 23 
0 40 15 1
24 24 
0 41 15 1
25 25 
0 42 15 1
26 26 
0 43 15 1
27 27 
0 44 15 1
28 28 
0 45 15 1
29 29 
0 46 15 1
30 30 
0 47 15 1
31 31 
0 48 15 1
32 32 
0 49 15 1
33 33 
0 50 15 1
34 34 
1 1 1 4
35 1 35 
36 35 36 
37 36 37 
38 37 2 
1 2 1 4
39 2 38 
40 38 39 
41 39 40 
42 40 3 
1 3 1 4
43 3 41 
44 41 42 
45 42 43 
46 43 4 
1 4 1 4
47 4 44 
48 44 45 
49 45 46 
50 46 5 
1 5 1 4
51 5 47 
52 47 48 
53 48 49 
54 49 6 
1 6 1 4
55 6 50 
56 50 51 
57 51 52 
58 52 7 
1 7 1 4
59 7 53 
60 53 54 
61 54 55 
62 55 8 
1 8 1 4
63 8 56 
64 56 57 
65 57 58 
66 58 9 
1 9 1 4
67 9 59 
68 59 60 
69 60 61 
70 61 10 
1 10 1 4
71 10 62 
72 62 63 
73 63 64 
74 64 11 
1 11 1 4
75 11 65 
76 65 66 
77 66 67 
78 67 12 
1 12 1 4
79 12 68 
80 68 69 
81 69 70 
82 70 13 
1 13 1 4
83 13 71 
84 71 72 
85 72 73 
86 73 14 
1 14 1 4
87 14 74 
88 74 75 
89 75 76 
90 76 15 
1 15 1 4
91 15 77 
92 77 78 
93 78 79 
94 79 16 
1 16 1 4
95 16 80 
96 80 81 
97 81 82 
98 82 1 
1 33 1 1
99 18 19 
1 34 1 1
100 19 20 
1 35 1 1
101 20 21 
1 36 1 1
102 21 22 
1 37 1 1
103 22 23 
1 38 1 1
104 23 24 
1 39 1 1
105 24 25 
1 40 1 1
106 25 26 
1 41 1 1
107 26 27 
1 42 1 1
108 27 28 
1 43 1 1
109 28 29 
1 44 1 1
110 29 30 
1 45 1 1
111 30 31 
1 46 1 1
112 31 32 
1 47 1 1
113 32 33 
1 48 1 1
114 33 18 
2 1 2 1090
115 121 30 423 
116 189 188 357 
117 137 140 391 
118 170 411 424 
119 214 354 447 
120 306 241 316 
121 389 92 482 
122 354 214 356 
123 43 4 413 
124 398 389 482 
125 348 346 513 
126 283 303 338 
127 406 93 407 
128 262 300 432 
129 338 303 504 
130 325 297 495 
131 197 348 513 
132 288 422 533 
133 241 306 317 
134 411 170 496 
135 294 478 479 
136 57 58 434 
137 94 310 329 
138 321 305 579 
139 370 207 373 
140 141 137 391 
141 256 322 576 
142 30 87 423 
143 253 18 501 
144 478 139 479 
145 66 67 422 
146 10 62 468 
147 97 366 545 
148 357 188 358 
149 448 449 481 
150 407 93 413 
151 214 189 357 
152 280 339 499 
153 322 320 576 
154 372 373 374 
155 292 291 556 
156 369 207 370 
157 377 205 452 
158 115 302 469 
159 132 312 337 
160 259 286 307 
161 257 28 258 
162 302 115 470 
163 240 321 579 
164 499 339 574 
165 122 126 331 
166 93 43 413 
167 422 98 533 
168 372 370 373 
169 297 325 515 
170 74 75 470 
171 31 30 121 
172 305 321 322 
173 4 116 413 
174 19 18 253 
175 394 459 497 
176 29 28 257 
177 424 273 453 
178 86 271 272 
179 260 258 328 
180 449 108 481 
181 249 84 250 
182 271 83 331 
183 41 42 435 
184 291 292 520 
185 264 262 432 
186 285 320 488 
187 304 526 539 
188 88 268 269 
189 266 89 267 
190 226 326 327 
191 200 466 564 
192 366 97 462 
193 24 84 249 
194 32 83 271 
195 86 33 271 
196 251 250 464 
197 313 264 432 
198 555 301 562 
199 225 320 322 
200 368 341 494 
201 314 292 563 
202 84 23 266 
203 22 89 266 
204 88 26 268 
205 288 308 422 
206 58 97 434 
207 260 328 336 
208 507 555 562 
209 200 203 466 
210 112 57 434 
211 141 391 392 
212 420 117 475 
213 459 217 497 
214 62 118 468 
215 205 377 550 
216 417 418 474 
217 109 329 437 
218 90 344 484 
219 526 316 539 
220 94 329 511 
221 113 308 416 
222 83 122 331 
223 274 290 291 
224 109 437 438 
225 308 113 422 
226 108 449 566 
227 21 20 534 
228 162 164 317 
229 73 14 471 
230 67 98 422 
231 397 139 478 
232 327 325 495 
233 111 379 493 
234 391 140 557 
235 279 410 412 
236 170 424 453 
237 113 66 422 
238 411 169 451 
239 95 448 481 
240 201 368 494 
241 411 410 424 
242 102 395 476 
243 18 86 501 
244 333 199 502 
245 226 181 326 
246 274 89 290 
247 283 338 464 
248 405 417 474 
249 235 162 317 
250 27 88 547 
251 321 225 322 
252 250 283 464 
253 432 300 586 
254 320 285 576 
255 410 279 424 
256 100 10 468 
257 257 259 307 
258 409 413 568 
259 306 316 526 
260 356 214 357 
261 84 266 546 
262 502 199 564 
263 230 314 563 
264 290 21 534 
265 75 101 470 
266 315 219 316 
267 164 241 317 
268 327 251 464 
269 241 166 315 
270 484 344 531 
271 115 74 470 
272 42 93 435 
273 225 149 319 
274 126 248 331 
275 361 491 523 
276 107 41 435 
277 508 120 553 
278 317 306 490 
279 160 235 314 
280 462 110 538 
281 312 132 414 
282 226 327 464 
283 225 319 320 
284 25 249 549 
285 338 226 464 
286 181 183 326 
287 241 315 316 
288 227 136 323 
289 141 392 497 
290 151 318 319 
291 330 313 432 
292 268 25 549 
293 434 97 545 
294 409 407 413 
295 372 375 457 
296 408 411 451 
297 110 462 541 
298 93 406 435 
299 147 225 321 
300 299 260 336 
301 132 337 479 
302 367 112 433 
303 88 328 547 
304 186 324 325 
305 139 397 525 
306 461 108 566 
307 279 412 441 
308 104 438 441 
309 231 192 334 
310 96 73 471 
311 491 184 523 
312 499 240 579 
313 151 153 318 
314 166 168 315 
315 14 115 471 
316 117 420 582 
317 328 270 336 
318 186 187 324 
319 136 138 323 
320 238 224 330 
321 149 151 319 
322 296 515 542 
323 306 274 490 
324 320 319 488 
325 300 555 586 
326 251 327 495 
327 427 215 429 
328 395 102 572 
329 300 301 555 
330 128 130 381 
331 243 313 330 
332 323 240 499 
333 307 286 530 
334 208 340 415 
335 120 483 553 
336 248 128 381 
337 340 289 415 
338 292 314 520 
339 438 104 529 
340 196 199 333 
341 346 368 513 
342 158 160 314 
343 92 389 548 
344 279 273 424 
345 270 298 336 
346 210 211 332 
347 312 244 337 
348 177 338 504 
349 310 94 524 
350 457 375 570 
351 316 219 539 
352 183 186 326 
353 336 298 502 
354 413 116 568 
355 219 504 539 
356 173 175 219 
357 493 379 512 
358 156 158 230 
359 427 419 454 
360 230 158 314 
361 145 147 321 
362 243 312 313 
363 143 145 240 
364 190 192 231 
365 517 430 535 
366 392 394 497 
367 108 461 503 
368 160 162 235 
369 326 325 327 
370 433 112 434 
371 337 294 479 
372 296 297 515 
373 147 149 225 
374 318 230 488 
375 179 181 226 
376 240 145 321 
377 311 378 440 
378 194 333 334 
379 187 190 324 
380 215 427 454 
381 169 411 496 
382 192 194 334 
383 138 143 323 
384 153 156 318 
385 229 243 330 
386 264 313 587 
387 224 229 330 
388 384 386 397 
389 168 173 315 
390 222 224 238 
391 408 410 411 
392 460 444 554 
393 194 196 333 
394 211 222 332 
395 222 238 332 
396 173 174 175 
397 164 166 241 
398 379 111 506 
399 243 244 312 
400 156 157 158 
401 372 374 375 
402 186 325 326 
403 100 380 543 
404 134 136 227 
405 196 198 199 
406 447 354 571 
407 11 65 463 
408 190 231 324 
409 357 358 359 
410 388 390 391 
411 177 179 338 
412 299 336 502 
413 346 343 368 
414 229 237 243 
415 244 246 337 
416 380 100 577 
417 343 341 368 
418 143 240 323 
419 158 159 160 
420 183 185 186 
421 246 294 337 
422 444 517 535 
423 420 475 528 
424 143 144 145 
425 347 346 348 
426 156 230 318 
427 200 202 203 
428 442 402 451 
429 168 172 173 
430 130 134 381 
431 153 155 156 
432 45 46 104 
433 81 82 102 
434 39 40 103 
435 75 76 101 
436 52 7 99 
437 61 10 100 
438 325 324 515 
439 67 12 98 
440 58 9 97 
441 42 43 93 
442 72 73 96 
443 48 49 94 
444 36 37 95 
445 78 79 92 
446 55 8 91 
447 64 11 90 
448 219 175 504 
449 187 189 190 
450 69 70 105 
451 384 397 478 
452 173 219 315 
453 345 343 346 
454 313 312 414 
455 267 89 274 
456 112 367 455 
457 376 374 377 
458 250 84 252 
459 206 436 440 
460 145 146 147 
461 246 276 294 
462 169 442 451 
463 138 142 143 
464 190 191 192 
465 59 60 110 
466 3 41 107 
467 1 35 108 
468 15 77 106 
469 5 47 109 
470 14 74 115 
471 16 80 114 
472 4 44 116 
473 2 38 117 
474 62 63 118 
475 53 54 119 
476 56 57 112 
477 65 66 113 
478 13 71 120 
479 50 51 111 
480 175 176 177 
481 160 161 162 
482 179 226 338 
483 238 330 432 
484 365 363 369 
485 204 209 210 
486 391 390 392 
487 86 272 277 
488 339 248 574 
489 249 250 251 
490 504 303 539 
491 335 203 507 
492 353 352 354 
493 140 397 557 
494 341 340 494 
495 243 237 244 
496 147 148 149 
497 428 427 429 
498 351 349 352 
499 358 188 491 
500 384 385 386 
501 88 269 270 
502 436 265 440 
503 408 409 410 
504 173 172 174 
505 444 460 517 
506 156 155 157 
507 203 202 204 
508 186 185 187 
509 404 407 408 
510 177 178 179 
511 199 198 200 
512 295 383 384 
513 355 354 356 
514 345 346 347 
515 211 221 222 
516 365 369 370 
517 429 215 450 
518 134 227 381 
519 386 387 388 
520 347 348 349 
521 192 193 194 
522 158 157 159 
523 190 189 191 
524 175 174 176 
525 162 163 164 
526 222 223 224 
527 179 180 181 
528 257 258 259 
529 360 358 361 
530 90 11 463 
531 248 381 574 
532 143 142 144 
533 376 377 378 
534 194 195 196 
535 309 289 340 
536 149 150 151 
537 160 159 161 
538 294 276 295 
539 362 361 363 
540 164 165 166 
541 388 389 390 
542 65 113 463 
543 224 228 229 
544 95 431 448 
545 145 144 146 
546 375 374 376 
547 96 489 553 
548 181 182 183 
549 308 289 309 
550 288 234 289 
551 68 498 518 
552 309 340 341 
553 210 209 211 
554 404 408 451 
555 126 128 248 
556 229 236 237 
557 428 429 430 
558 255 292 556 
559 130 133 134 
560 364 363 365 
561 342 341 343 
562 351 352 353 
563 458 119 485 
564 392 393 394 
565 147 146 148 
566 353 354 355 
567 408 407 409 
568 134 135 136 
569 289 234 415 
570 196 197 198 
571 88 270 328 
572 371 370 372 
573 344 343 345 
574 384 383 385 
575 386 385 387 
576 410 409 412 
577 329 109 511 
578 192 191 193 
579 177 176 178 
580 166 167 168 
581 222 221 223 
582 394 395 396 
583 355 356 366 
584 162 161 163 
585 151 152 153 
586 244 245 246 
587 183 184 185 
588 359 358 360 
589 149 148 150 
590 418 400 419 
591 373 207 509 
592 179 178 180 
593 199 200 564 
594 419 400 454 
595 114 398 482 
596 303 252 304 
597 360 361 362 
598 294 295 478 
599 246 275 276 
600 194 193 195 
601 136 137 138 
602 125 123 242 
603 420 419 421 
604 204 208 209 
605 388 387 389 
606 232 261 265 
607 239 218 273 
608 187 188 189 
609 103 473 474 
610 181 180 182 
611 216 401 402 
612 288 289 308 
613 224 223 228 
614 530 263 552 
615 265 310 311 
616 168 171 172 
617 235 317 490 
618 309 341 342 
619 200 201 202 
620 153 154 155 
621 362 363 364 
622 164 163 165 
623 350 349 351 
624 278 273 279 
625 229 228 236 
626 392 390 393 
627 196 195 197 
628 402 403 404 
629 203 204 507 
630 342 343 344 
631 365 370 371 
632 8 56 455 
633 138 141 142 
634 1 108 503 
635 32 31 83 
636 24 23 84 
637 20 19 85 
638 18 33 86 
639 30 29 87 
640 27 26 88 
641 22 21 89 
642 216 402 442 
643 166 165 167 
644 349 348 565 
645 151 150 152 
646 404 406 407 
647 211 220 221 
648 308 309 416 
649 377 452 536 
650 244 237 245 
651 183 182 184 
652 295 382 383 
653 394 393 395 
654 134 133 135 
655 91 8 455 
656 227 323 499 
657 347 349 350 
658 348 197 532 
659 233 281 282 
660 397 386 557 
661 157 155 216 
662 390 389 398 
663 233 220 234 
664 376 378 379 
665 242 123 423 
666 262 242 263 
667 187 185 188 
668 281 234 288 
669 56 112 455 
670 204 202 208 
671 25 24 249 
672 33 32 271 
673 136 135 137 
674 191 189 214 
675 211 209 220 
676 144 142 217 
677 265 261 310 
678 378 311 585 
679 246 245 275 
680 168 167 171 
681 448 430 449 
682 418 419 420 
683 200 198 201 
684 295 276 382 
685 351 353 380 
686 153 152 154 
687 239 273 278 
688 131 129 132 
689 388 391 557 
690 402 401 403 
691 155 154 399 
692 276 275 302 
693 23 22 266 
694 174 172 206 
695 161 159 169 
696 273 218 453 
697 309 342 416 
698 301 263 530 
699 314 235 520 
700 237 236 425 
701 26 25 268 
702 319 318 488 
703 399 154 400 
704 404 403 406 
705 498 293 518 
706 360 362 367 
707 275 245 287 
708 403 401 405 
709 228 223 247 
710 431 95 519 
711 300 263 301 
712 195 193 213 
713 171 167 218 
714 233 234 281 
715 310 261 329 
716 441 412 561 
717 221 220 233 
718 138 137 141 
719 245 237 425 
720 282 281 293 
721 259 258 260 
722 122 124 126 
723 296 269 297 
724 393 390 398 
725 178 176 205 
726 363 361 523 
727 148 146 212 
728 431 428 448 
729 216 155 399 
730 280 272 339 
731 421 419 427 
732 171 218 232 
733 128 129 130 
734 182 180 207 
735 83 31 121 
736 130 131 133 
737 232 265 436 
738 232 218 239 
739 238 432 586 
740 232 239 261 
741 209 208 415 
742 126 127 128 
743 152 150 215 
744 421 428 431 
745 216 399 401 
746 165 163 170 
747 125 242 262 
748 85 19 253 
749 421 427 428 
750 428 430 448 
751 276 302 382 
752 87 29 257 
753 460 396 461 
754 274 291 490 
755 233 282 439 
756 259 284 286 
757 365 371 458 
758 474 418 528 
759 137 135 140 
760 425 236 426 
761 331 248 559 
762 417 400 418 
763 340 208 494 
764 220 209 415 
765 89 21 290 
766 265 311 440 
767 130 129 131 
768 133 131 139 
769 255 285 292 
770 128 127 129 
771 101 76 472 
772 103 40 473 
773 39 103 475 
774 81 102 476 
775 45 104 477 
776 267 274 306 
777 78 92 480 
778 36 95 481 
779 92 79 482 
780 52 99 486 
781 234 220 415 
782 124 123 125 
783 72 96 483 
784 423 87 552 
785 94 49 492 
786 53 119 465 
787 64 90 484 
788 55 91 485 
789 277 272 280 
790 301 530 562 
791 109 438 529 
792 250 252 283 
793 361 358 491 
794 85 254 255 
795 359 360 433 
796 122 121 123 
797 287 245 425 
798 278 279 441 
799 172 171 436 
800 105 70 487 
801 277 280 305 
802 364 365 458 
803 399 400 417 
804 126 124 127 
805 125 262 264 
806 270 269 296 
807 262 263 300 
808 284 260 299 
809 15 106 472 
810 3 107 473 
811 117 38 475 
812 114 80 476 
813 116 44 477 
814 263 242 552 
815 106 77 480 
816 108 35 481 
817 122 123 124 
818 16 114 482 
819 283 252 303 
820 118 63 484 
821 119 54 485 
822 371 372 457 
823 120 71 483 
824 254 253 256 
825 368 201 513 
826 99 7 465 
827 402 404 451 
828 13 120 487 
829 270 296 298 
830 123 121 423 
831 83 121 122 
832 401 399 417 
833 111 51 486 
834 223 221 439 
835 248 339 559 
836 206 172 436 
837 256 253 501 
838 405 401 417 
839 185 184 491 
840 50 111 493 
841 459 396 460 
842 488 230 563 
843 193 191 447 
844 259 260 284 
845 299 502 564 
846 394 396 459 
847 569 456 587 
848 221 233 439 
849 295 384 478 
850 146 144 443 
851 502 298 584 
852 157 216 442 
853 509 205 550 
854 159 157 442 
855 437 278 438 
856 360 367 433 
857 347 350 467 
858 191 214 447 
859 397 140 525 
860 286 284 335 
861 345 347 467 
862 171 232 436 
863 236 228 445 
864 255 254 285 
865 518 293 533 
866 144 217 443 
867 445 247 446 
868 150 148 450 
869 355 366 462 
870 85 253 254 
871 247 223 439 
872 329 261 437 
873 142 141 497 
874 87 257 307 
875 239 278 437 
876 438 278 441 
877 261 239 437 
878 305 322 521 
879 87 307 552 
880 476 395 551 
881 208 202 494 
882 169 159 442 
883 176 174 452 
884 228 247 445 
885 483 96 553 
886 203 335 466 
887 213 193 447 
888 426 236 445 
889 322 256 521 
890 167 165 453 
891 400 154 454 
892 212 146 443 
893 174 206 452 
894 212 443 444 
895 348 532 565 
896 275 287 469 
897 76 15 472 
898 40 3 473 
899 38 39 475 
900 80 81 476 
901 44 45 477 
902 218 167 453 
903 77 78 480 
904 35 36 481 
905 79 16 482 
906 71 72 483 
907 63 64 484 
908 54 55 485 
909 118 467 468 
910 477 561 568 
911 51 52 486 
912 215 150 450 
913 49 6 492 
914 70 13 487 
915 48 94 511 
916 302 275 469 
917 148 212 450 
918 6 50 493 
919 7 53 465 
920 154 152 454 
921 298 542 584 
922 458 485 573 
923 165 170 453 
924 109 47 511 
925 205 176 452 
926 152 215 454 
927 113 416 463 
928 188 185 491 
929 467 350 468 
930 95 37 519 
931 161 169 496 
932 69 105 498 
933 131 132 479 
934 125 264 456 
935 2 117 519 
936 124 125 456 
937 376 379 506 
938 490 291 520 
939 68 69 498 
940 127 124 456 
941 139 131 479 
942 202 201 494 
943 515 231 542 
944 439 282 500 
945 104 46 529 
946 170 163 496 
947 175 177 504 
948 457 99 465 
949 82 1 503 
950 231 334 542 
951 102 82 503 
952 201 198 513 
953 406 403 505 
954 5 109 529 
955 163 161 496 
956 252 84 546 
957 97 9 541 
958 414 569 587 
959 115 469 471 
960 247 439 500 
961 61 100 543 
962 284 299 466 
963 204 210 507 
964 328 258 547 
965 217 142 497 
966 425 426 489 
967 59 110 541 
968 380 110 543 
969 110 60 543 
970 383 382 522 
971 116 477 568 
972 344 345 531 
973 86 277 501 
974 178 205 509 
975 207 180 509 
976 111 486 506 
977 430 429 535 
978 377 374 550 
979 373 509 550 
980 335 284 466 
981 374 373 550 
982 12 68 518 
983 435 406 505 
984 507 210 555 
985 492 6 493 
986 344 90 544 
987 287 425 489 
988 107 435 505 
989 282 293 516 
990 375 376 506 
991 459 460 554 
992 414 132 569 
993 362 364 527 
994 446 247 500 
995 455 367 527 
996 512 311 524 
997 403 405 505 
998 396 395 572 
999 132 129 569 
1000 398 114 551 
1001 110 380 538 
1002 420 421 582 
1003 324 231 515 
1004 197 195 532 
1005 489 96 580 
1006 380 353 538 
1007 293 281 533 
1008 542 334 584 
1009 133 139 525 
1010 99 457 570 
1011 140 135 525 
1012 351 380 577 
1013 235 490 520 
1014 227 499 574 
1015 91 455 527 
1016 311 310 524 
1017 272 271 559 
1018 475 103 528 
1019 85 255 534 
1020 271 331 559 
1021 389 387 548 
1022 307 530 552 
1023 47 48 511 
1024 180 178 509 
1025 359 433 545 
1026 519 117 582 
1027 472 106 514 
1028 462 97 541 
1029 251 495 549 
1030 258 28 547 
1031 98 12 518 
1032 103 474 528 
1033 210 332 555 
1034 393 398 551 
1035 387 385 510 
1036 355 462 538 
1037 293 498 516 
1038 405 474 537 
1039 198 197 513 
1040 98 518 533 
1041 277 305 521 
1042 468 350 577 
1043 555 332 586 
1044 445 446 508 
1045 378 377 536 
1046 359 545 575 
1047 266 267 583 
1048 385 383 514 
1049 207 369 567 
1050 37 2 519 
1051 450 212 535 
1052 291 290 556 
1053 416 342 544 
1054 369 363 523 
1055 458 371 560 
1056 449 430 517 
1057 426 445 508 
1058 269 268 540 
1059 510 385 514 
1060 285 254 576 
1061 298 296 542 
1062 492 493 512 
1063 335 507 562 
1064 431 519 582 
1065 100 468 577 
1066 530 286 562 
1067 356 357 575 
1068 364 458 573 
1069 471 469 580 
1070 469 287 580 
1071 452 206 536 
1072 474 473 537 
1073 429 450 535 
1074 302 470 578 
1075 334 333 584 
1076 382 302 578 
1077 46 5 529 
1078 297 269 540 
1079 463 416 544 
1080 256 501 521 
1081 127 456 569 
1082 217 459 554 
1083 105 487 558 
1084 332 238 586 
1085 106 480 510 
1086 305 280 579 
1087 440 378 536 
1088 267 306 526 
1089 304 252 546 
1090 503 461 572 
1091 357 359 575 
1092 354 352 571 
1093 426 508 553 
1094 367 362 527 
1095 135 133 525 
1096 106 510 514 
1097 342 344 544 
1098 443 217 554 
1099 313 414 587 
1100 418 420 528 
1101 352 349 565 
1102 386 388 557 
1103 114 476 551 
1104 9 59 541 
1105 119 458 560 
1106 506 486 570 
1107 206 440 536 
1108 472 514 522 
1109 60 61 543 
1110 280 499 579 
1111 101 472 522 
1112 102 503 572 
1113 500 282 516 
1114 195 213 532 
1115 281 288 533 
1116 498 105 516 
1117 558 487 581 
1118 107 505 537 
1119 184 182 567 
1120 433 434 545 
1121 96 471 580 
1122 495 540 549 
1123 249 251 549 
1124 353 355 538 
1125 20 85 534 
1126 522 382 578 
1127 94 492 524 
1128 28 27 547 
1129 182 207 567 
1130 303 304 539 
1131 473 107 537 
1132 311 512 585 
1133 212 444 535 
1134 527 364 573 
1135 285 488 563 
1136 292 285 563 
1137 345 467 531 
1138 118 484 531 
1139 339 272 559 
1140 561 412 568 
1141 477 104 561 
1142 242 423 552 
1143 104 441 561 
1144 505 405 537 
1145 381 227 574 
1146 395 393 551 
1147 495 297 540 
1148 366 356 575 
1149 514 383 522 
1150 457 465 560 
1151 371 457 560 
1152 467 118 531 
1153 375 506 570 
1154 501 277 521 
1155 545 366 575 
1156 480 92 548 
1157 90 463 544 
1158 444 443 554 
1159 460 461 566 
1160 412 409 568 
1161 492 512 524 
1162 129 127 569 
1163 465 119 560 
1164 379 378 585 
1165 350 351 577 
1166 286 335 562 
1167 461 396 572 
1168 534 255 556 
1169 421 431 582 
1170 470 101 578 
1171 486 99 570 
1172 489 426 553 
1173 446 558 581 
1174 485 91 573 
1175 254 256 576 
1176 526 304 583 
1177 565 213 571 
1178 500 516 558 
1179 546 266 583 
1180 487 120 581 
1181 466 299 564 
1182 523 184 567 
1183 120 508 581 
1184 213 447 571 
1185 387 510 548 
1186 446 500 558 
1187 352 565 571 
1188 516 105 558 
1189 101 522 578 
1190 510 480 548 
1191 333 502 584 
1192 287 489 580 
1193 456 264 587 
1194 517 460 566 
1195 91 527 573 
1196 290 534 556 
1197 449 517 566 
1198 512 379 585 
1199 540 268 549 
1200 508 446 581 
1201 369 523 567 
1202 532 213 565 
1203 267 526 583 
1204 304 546 583 
$EndElements
